<svg xmlns="http://www.w3.org/2000/svg" width="585.815" height="404.229" viewBox="0 0 585.815 404.229">
  <g id="parents-feedback" transform="translate(-151.726 -275.177)">
    <g id="Group_1935" data-name="Group 1935" transform="translate(151.726 275.177)">
      <path id="Path_206" data-name="Path 206" d="M60.416,396.83h66.046v90.014H65.251c-.164.91-.319,1.854-.488,2.785h61.7v72.6c-.109-.033-.209-.073-.3-.109-1.744-.689-3.474-1.42-5.206-2.2l-1.107-.5q-2.6-1.228-5.206-2.6c-.607-.319-1.214-.652-1.82-.989a108.307,108.307,0,0,1-25.951-20.278c-.221-.216-.431-.443-.652-.649-1.053-1.147-2.09-2.3-3.091-3.489l-1.107-1.3c-1.183-1.45-2.33-2.943-3.443-4.451-.164-.221-.319-.443-.488-.652a96.886,96.886,0,0,1-11.192-20.239c-.091-.216-.17-.449-.255-.652q-1.341-3.449-2.375-6.978c-.3-.983-.586-1.951-.834-2.973-.091-.3-.17-.607-.24-.886A177.931,177.931,0,0,1,59.062,449V443.8c0-6.019.073-12.078.176-18.13,0-1.568.064-3.131.1-4.705q.137-5.995.391-11.987c.039-1.113.091-2.218.149-3.337a18.863,18.863,0,0,1,.1-1.919C60.13,401.417,60.261,399.121,60.416,396.83Z" transform="translate(-58.969 -227.064)" fill="#6c63ff" opacity="0.1"/>
      <path id="Path_209" data-name="Path 209" d="M186.8,246.1V322.8H299.639V246.1Zm0,79.06v65.861c.646.145,1.286.282,1.922.4.864.178,1.723.339,2.6.476.167.028.337.054.519.072.345.062.7.111,1.041.16.869.127,1.733.233,2.6.315.41.044.827.083,1.245.116l1,.083h0c.546.044,1.087.078,1.623.093.332,0,.667.034,1.009.044h3.71c.446,0,.9,0,1.337-.044h.032a6.6,6.6,0,0,0,.932-.044,2.052,2.052,0,0,0,.26,0,5.049,5.049,0,0,0,.769-.039h.182l1.745-.145c.573-.054,1.15-.127,1.733-.194l1.187-.15a98.348,98.348,0,0,0,14.288-3.238c10.524-3.127,20.821-7.495,31.34-10.7,13.589-4.135,28.635-6.159,41.772-1.109V325.166ZM299.639,160.725V58.638a136.639,136.639,0,0,0-36.667,4.569c-28.571,7.645-54.207,24.227-76.173,45.4V160.72h5.664v2.367H186.8v80.652H299.639V163.1H215.716v-2.367Zm144.929-34.487a44.638,44.638,0,0,1-20.452-6.332c-12.155-7.04-21.862-17.913-32.709-27.088a145.168,145.168,0,0,0-79.172-33.487V160.725H473.31l.4-.45Zm14.674-2.773L474.8,141.649V118.7a58.876,58.876,0,0,0-15.53,4.745ZM474.8,407.379V325.164H441.642c-.087-.349-.177-.7-.281-1.06.1.354.182.711.277,1.06H312.258V384.62c1.228.969,2.441,1.99,3.64,3.026h0c1.3,1.109,2.577,2.28,3.863,3.427l1.3,1.142c.619.553,1.245,1.109,1.873,1.631q1.873,1.618,3.783,3.194c.631.553,1.276,1.054,1.915,1.574a259.933,259.933,0,0,0,32.08,22.348q3.764,2.217,7.6,4.329c1.7.925,3.414,1.845,5.132,2.74q3.883,2.013,7.809,3.877h0a273.616,273.616,0,0,0,76,23.578q8.736,1.375,17.547,2.163V407.374h.522ZM312.258,163.093v80.636H474.817V163.093Zm0,83.011V322.8H474.817V246.1ZM487.433,118.6v25.6l19.857-23.206q-9.869-1.7-19.857-2.422Zm0,127.534V322.8H645.542V246.1ZM644.952,413.465l.556-88.3H487.431v133.36a266.267,266.267,0,0,0,30.554-.388h.177q7.28-.489,14.507-1.419h.109a254.354,254.354,0,0,0,74.54-21.193m68.708-176.808c-.594-1.491-1.213-2.972-1.842-4.435-1.177-2.773-2.427-5.466-3.7-8.159H658.146v76.659h31.19a174.847,174.847,0,0,0-13.293-64.1Zm-17.88,66.458v75.95A108.619,108.619,0,0,0,679.7,370.162a112.231,112.231,0,0,0,9.609-45Zm0-101.408v19.957h11.18a219.6,219.6,0,0,0-11.163-19.986ZM550.919,133.642c-.823-.333-1.645-.672-2.473-1a215.49,215.49,0,0,0-26.708-8.55l-30.394,35.513h0l-.582.659.391.455H599.307a226.811,226.811,0,0,0-48.378-27.114Zm51.566,29.479H489.646l-2.218,2.163v78.455H645.556V205.747A231.587,231.587,0,0,0,602.493,163.1Z" transform="translate(-103.542 -58.628)" fill="#7ed1d9" opacity="0.1"/>
      <path id="Path_211" data-name="Path 211" d="M60.416,396.83h66.046v90.014H65.251c-.164.91-.319,1.854-.488,2.785h61.7v72.6c-.109-.033-.209-.073-.3-.109-1.744-.689-3.474-1.42-5.206-2.2l-1.107-.5q-2.6-1.228-5.206-2.6c-.607-.319-1.214-.652-1.82-.989a108.307,108.307,0,0,1-25.951-20.278c-.221-.216-.431-.443-.652-.649-1.053-1.147-2.09-2.3-3.091-3.489l-1.107-1.3c-1.183-1.45-2.33-2.943-3.443-4.451-.164-.221-.319-.443-.488-.652a96.886,96.886,0,0,1-11.192-20.239c-.091-.216-.17-.449-.255-.652q-1.341-3.449-2.375-6.978c-.3-.983-.586-1.951-.834-2.973-.091-.3-.17-.607-.24-.886A177.931,177.931,0,0,1,59.062,449V443.8c0-6.019.073-12.078.176-18.13,0-1.568.064-3.131.1-4.705q.137-5.995.391-11.987c.039-1.113.091-2.218.149-3.337a18.863,18.863,0,0,1,.1-1.919C60.13,401.417,60.261,399.121,60.416,396.83Z" transform="translate(-58.969 -227.064)" fill="#f2fbfb"/>
      <rect id="Rectangle_58" data-name="Rectangle 58" width="94.015" height="2.09" transform="translate(191.215 262.186)" fill="#6c63ff" opacity="0.1"/>
      <path id="Path_230" data-name="Path 230" d="M65.66,546.41c.255,1,.54,1.99.84,2.973v-2.309h5.206v9.253H68.921c.085.215.17.449.255.652h59.548V546.41Zm12.366,9.918H72.82v-9.253h5.206Zm6.292,0H79.112v-9.253h5.206Zm6.307,0H85.407v-9.253h5.206Zm6.3,0H91.718v-9.253h5.206Zm6.307,0H98.022v-9.253h5.206Zm6.307,0h-5.209v-9.253h5.206Zm6.3,0h-5.209v-9.253h5.212Zm6.3,0h-5.209v-9.253h5.206Zm6.3,0h-5.206v-9.253h5.206Z" transform="translate(-61.235 -277.085)" fill="#6c63ff" opacity="0.1"/>
      <path id="Path_207" data-name="Path 207" d="M143.127,218.237H106.9a274.63,274.63,0,0,1,19.268-26.525c5.382-6.611,11.061-13.045,16.959-19.262Z" transform="translate(-75.637 -110.543)" fill="#f2fbfb"/>
      <path id="Path_208" data-name="Path 208" d="M127.234,247.09v94.656H61.4c0-.273.046-.552.064-.825q.086-1.124.182-2.239c.073-.871.149-1.75.234-2.6s.176-1.893.273-2.837.188-1.9.3-2.843.209-1.887.325-2.825.221-1.887.346-2.824c.1-.78.2-1.556.3-2.336.149-1.1.3-2.206.476-3.3a3.037,3.037,0,0,1,.073-.489,225.118,225.118,0,0,1,4.854-23.767A175.762,175.762,0,0,1,77,270.778a180.743,180.743,0,0,1,12.287-23.664Z" transform="translate(-59.75 -147.204)" fill="#f2fbfb"/>
      <path id="Path_210" data-name="Path 210" d="M127.234,320.46v46.912H61.4c0-.273.046-.552.064-.825q.086-1.124.182-2.239c.073-.871.149-1.751.234-2.6s.176-1.893.273-2.837.188-1.9.3-2.843.209-1.887.325-2.825.221-1.887.346-2.824c.1-.78.2-1.556.3-2.336.149-1.1.3-2.206.476-3.3a3.035,3.035,0,0,1,.073-.488,225.091,225.091,0,0,1,4.854-23.767Z" transform="translate(-59.75 -178.116)" fill="#f2fbfb"/>
      <path id="Path_226" data-name="Path 226" d="M65.24,357v10.588h63.337V357Zm6.313,9.924H66.4v-9.275H71.6Zm6.307,0H72.652v-9.275h5.209Zm6.292,0H78.944v-9.275H84.15Zm6.307,0h-5.2v-9.275h5.206Zm6.3,0H91.549v-9.275h5.206Zm6.307,0H97.857v-9.275h5.206Zm6.307,0h-5.212v-9.275h5.206Zm6.3,0h-5.209v-9.275h5.206Zm6.3,0h-5.209v-9.275h5.206Zm6.3,0h-5.2v-9.275h5.206Z" transform="translate(-61.089 -192.262)" fill="#6c63ff" opacity="0.1"/>
      <path id="Path_227" data-name="Path 227" d="M65.24,404.34v10.588h63.337V404.34Zm6.313,9.918H66.4v-9.247H71.6Zm6.307,0H72.652v-9.247h5.209Zm6.292,0H78.944v-9.247H84.15Zm6.307,0h-5.2v-9.247h5.206Zm6.3,0H91.549v-9.247h5.206Zm6.307,0H97.857v-9.247h5.206Zm6.307,0h-5.212v-9.247h5.206Zm6.3,0h-5.209v-9.247h5.206Zm6.3,0h-5.209v-9.247h5.206Zm6.3,0h-5.2v-9.247h5.206Z" transform="translate(-61.089 -213.464)" fill="#6c63ff" opacity="0.1"/>
      <path id="Path_228" data-name="Path 228" d="M65.24,451.7v10.618h63.337V451.7Zm6.313,9.918H66.4v-9.253H71.6Zm6.307,0H72.652v-9.253h5.209Zm6.292,0H78.944v-9.253H84.15Zm6.307,0h-5.2v-9.253h5.206Zm6.3,0H91.549v-9.253h5.206Zm6.307,0H97.857v-9.253h5.206Zm6.307,0h-5.212v-9.253h5.206Zm6.3,0h-5.209v-9.253h5.206Zm6.3,0h-5.209v-9.253h5.206Zm6.3,0h-5.2v-9.253h5.206Z" transform="translate(-61.089 -234.676)" fill="#6c63ff" opacity="0.1"/>
      <path id="Path_229" data-name="Path 229" d="M65.24,499.06v10.576h63.337V499.06Zm6.313,9.918H66.4v-9.259H71.6Zm6.307,0H72.652v-9.259h5.209Zm6.292,0H78.944v-9.259H84.15Zm6.307,0h-5.2v-9.259h5.206Zm6.3,0H91.549v-9.259h5.206Zm6.307,0H97.857v-9.259h5.206Zm6.307,0h-5.212v-9.259h5.206Zm6.3,0h-5.209v-9.259h5.206Zm6.3,0h-5.209v-9.259h5.206Zm6.3,0h-5.2v-9.259h5.206Z" transform="translate(-61.089 -255.882)" fill="#6c63ff" opacity="0.1"/>
      <path id="Path_235" data-name="Path 235" d="M478.748,504.543l-1.4,5.986s-11.259-5.746-13.288-13.045a8.258,8.258,0,0,1,3.4-10.072l10.491,4.445Z" transform="translate(-247.793 -251.85)" fill="#fff"/>
      <path id="Path_219" data-name="Path 219" d="M1095.1,539.44h36.227a125.344,125.344,0,0,1-12.02,52.816,127.753,127.753,0,0,1-26.94,36.346V571.335h2.73Z" transform="translate(-545.544 -296.131)" fill="#f2fbfb" opacity="0.1"/>
      <path id="Path_220" data-name="Path 220" d="M1132.825,494.787H1096.57V419.548h19.614A194.771,194.771,0,0,1,1132.825,494.787Z" transform="translate(-547.009 -226.11)" fill="#f2fbfb" opacity="0.1"/>
    </g>
    <g id="Group_1978" data-name="Group 1978" transform="translate(197.07 358.289)">
      <g id="Group_1951" data-name="Group 1951" transform="translate(0 0)">
        <rect id="Rectangle_832" data-name="Rectangle 832" width="157.948" height="316.452" transform="translate(0 0)" fill="#b0d0ff"/>
        <rect id="Rectangle_833" data-name="Rectangle 833" width="146.493" height="312.686" transform="translate(6.114 5.875)" fill="#d5e5fb"/>
        <path id="Path_5079" data-name="Path 5079" d="M1409.053,1056.034a4.372,4.372,0,1,1,4.372,4.372A4.372,4.372,0,0,1,1409.053,1056.034Z" transform="translate(-1277.571 -896.229)" fill="#fff"/>
        <g id="Group_1950" data-name="Group 1950" transform="translate(42.243 60.406)">
          <rect id="Rectangle_834" data-name="Rectangle 834" width="65.522" height="20.352" transform="translate(3.337 3.021)" fill="#b0d0ff"/>
          <g id="Group_1948" data-name="Group 1948">
            <path id="Path_5080" data-name="Path 5080" d="M1145.163,720.174h-72.2V693.78h72.2Zm-70.486-1.709h68.777V695.489h-68.777Z" transform="translate(-1072.967 -693.78)" fill="#b0d0ff"/>
          </g>
          <g id="Group_1949" data-name="Group 1949" transform="translate(11.56 9.854)">
            <path id="Path_5081" data-name="Path 5081" d="M1116.5,731.308h2.549a2.178,2.178,0,0,1,2.457,2.179c0,1.45-1.164,2.207-2.586,2.207h-1.284v2.078H1116.5Zm2.457,3.362c.859,0,1.395-.48,1.395-1.173,0-.758-.545-1.154-1.395-1.154h-1.321v2.327Z" transform="translate(-1116.504 -731.197)" fill="#fff"/>
            <path id="Path_5082" data-name="Path 5082" d="M1139.741,731.308h2.881c1.515,0,2.4.812,2.4,2.059a1.94,1.94,0,0,1-1.542,1.958l1.745,2.447h-1.339l-1.607-2.253h-1.4v2.253h-1.136Zm2.8,3.2c.813,0,1.33-.425,1.33-1.1,0-.692-.5-1.071-1.339-1.071h-1.653v2.17Z" transform="translate(-1133.571 -731.197)" fill="#fff"/>
            <path id="Path_5083" data-name="Path 5083" d="M1165.134,731.308h1.136v6.464h-1.136Z" transform="translate(-1152.222 -731.197)" fill="#fff"/>
            <path id="Path_5084" data-name="Path 5084" d="M1175.918,731.308h1.053l3.463,4.47v-4.47h1.118v6.464h-.951l-3.565-4.6v4.6h-1.118Z" transform="translate(-1160.142 -731.197)" fill="#fff"/>
            <path id="Path_5085" data-name="Path 5085" d="M1202.321,734.233a3.271,3.271,0,0,1,3.334-3.343,3.369,3.369,0,0,1,2.53,1.007l-.729.84a2.572,2.572,0,0,0-1.81-.8,2.306,2.306,0,0,0,0,4.6,2.536,2.536,0,0,0,1.857-.84l.729.739a3.336,3.336,0,0,1-2.623,1.145A3.256,3.256,0,0,1,1202.321,734.233Z" transform="translate(-1179.534 -730.89)" fill="#fff"/>
            <path id="Path_5086" data-name="Path 5086" d="M1229.315,731.308h1.136v6.464h-1.136Z" transform="translate(-1199.361 -731.197)" fill="#fff"/>
            <path id="Path_5087" data-name="Path 5087" d="M1240.1,731.308h2.549a2.178,2.178,0,0,1,2.457,2.179c0,1.45-1.164,2.207-2.586,2.207h-1.284v2.078H1240.1Zm2.457,3.362c.859,0,1.394-.48,1.394-1.173,0-.758-.545-1.154-1.394-1.154h-1.321v2.327Z" transform="translate(-1207.281 -731.197)" fill="#fff"/>
            <path id="Path_5088" data-name="Path 5088" d="M1261.658,731.133h1.053l2.845,6.511h-1.2l-.656-1.561h-3.057l-.665,1.561h-1.164Zm1.625,3.944-1.117-2.586-1.108,2.586Z" transform="translate(-1221.027 -731.068)" fill="#fff"/>
            <path id="Path_5089" data-name="Path 5089" d="M1288.382,731.308h1.136v5.43h3.4v1.034h-4.535Z" transform="translate(-1242.744 -731.197)" fill="#fff"/>
          </g>
        </g>
      </g>
      <path id="Path_5047" data-name="Path 5047" d="M1905.193,798.312s22.116-86.944,28.444-85.391c4.6,1.129,37.253.606,54.733.236a9.13,9.13,0,0,1,9.2,10.608l-13.124,79.961Z" transform="translate(-1664.016 -643.999)" fill="#f99746"/>
      <g id="Group_1936" data-name="Group 1936" transform="translate(216.604 219.023)">
        <path id="Path_5048" data-name="Path 5048" d="M1839.925,1597.514s.979,11.334-1.416,12.513l-30.661-.063s0-3.538,4.924-4.325,13.577-3.67,15.041-10.091S1839.925,1597.514,1839.925,1597.514Z" transform="translate(-1807.848 -1521.053)" fill="#233862"/>
        <path id="Path_5049" data-name="Path 5049" d="M1807.848,1314.186c4.975,17.462,9.037,31.914,10.074,36.124,3.135,12.739,9.406,32.861,9.406,32.861s5.947,3.873,15.443-.2c0,0,2.866-31.128-.927-62.676-.064-.516-.129-1.037-.194-1.557-.428-3.363-.92-7.114-1.458-11.132Z" transform="translate(-1807.848 -1307.603)" fill="#2b478b"/>
        <path id="Path_5050" data-name="Path 5050" d="M1982.382,1597.514s.979,11.334-1.416,12.513l-30.661-.063s0-3.538,4.925-4.325,13.576-3.67,15.04-10.091S1982.382,1597.514,1982.382,1597.514Z" transform="translate(-1914.344 -1521.053)" fill="#233862"/>
        <path id="Path_5051" data-name="Path 5051" d="M1950.305,1314.186c4.975,17.462,9.037,31.914,10.074,36.124,3.135,12.739,9.406,32.861,9.406,32.861s5.947,3.873,15.443-.2c0,0,2.866-31.128-.926-62.676l-.195-1.557c-.428-3.363-.92-7.114-1.458-11.132Z" transform="translate(-1914.344 -1307.603)" fill="#2b478b"/>
      </g>
      <g id="Group_1943" data-name="Group 1943" transform="translate(318.939)">
        <path id="Rectangle_824" data-name="Rectangle 824" d="M13.491,0h20.63A13.492,13.492,0,0,1,47.613,13.492V32.7A13.491,13.491,0,0,1,34.122,46.192H13.49A13.49,13.49,0,0,1,0,32.7V13.491A13.491,13.491,0,0,1,13.491,0Z" fill="#c0d8fb"/>
        <rect id="Rectangle_825" data-name="Rectangle 825" width="43.488" height="42.19" rx="12.322" transform="translate(2.063 2.001)" fill="#dfebfd"/>
        <g id="Group_1939" data-name="Group 1939" transform="translate(5.621 5.231)">
          <g id="Group_1937" data-name="Group 1937" transform="translate(17.199)">
            <path id="Path_5052" data-name="Path 5052" d="M2303.649,461.654a.986.986,0,1,1,.986.986A.986.986,0,0,1,2303.649,461.654Z" transform="translate(-2303.649 -460.668)" fill="#b7d3f3"/>
            <path id="Path_5053" data-name="Path 5053" d="M2334.808,468.6a.986.986,0,1,1,.383,1.341A.986.986,0,0,1,2334.808,468.6Z" transform="translate(-2326.849 -466.215)" fill="#b7d3f3"/>
            <path id="Path_5054" data-name="Path 5054" d="M2360.848,491.09a.986.986,0,1,1-.294,1.363A.986.986,0,0,1,2360.848,491.09Z" transform="translate(-2346.072 -483.293)" fill="#b7d3f3"/>
            <path id="Path_5055" data-name="Path 5055" d="M2372.644,524.77a.986.986,0,1,1-.986.986A.986.986,0,0,1,2372.644,524.77Z" transform="translate(-2354.49 -508.589)" fill="#b7d3f3"/>
            <path id="Path_5056" data-name="Path 5056" d="M2363.748,562.459a.986.986,0,1,1-1.4,0A.986.986,0,0,1,2363.748,562.459Z" transform="translate(-2347.319 -536.548)" fill="#b7d3f3"/>
            <path id="Path_5057" data-name="Path 5057" d="M2339.213,587.058a.986.986,0,1,1-1.4,0A.986.986,0,0,1,2339.213,587.058Z" transform="translate(-2328.977 -554.938)" fill="#b7d3f3"/>
            <path id="Path_5058" data-name="Path 5058" d="M2303.649,597.672a.986.986,0,1,1,.986.986A.986.986,0,0,1,2303.649,597.672Z" transform="translate(-2303.649 -562.351)" fill="#b7d3f3"/>
          </g>
          <g id="Group_1938" data-name="Group 1938" transform="translate(0 1.873)">
            <path id="Path_5059" data-name="Path 5059" d="M2274.337,468.6a.986.986,0,1,0-.383,1.341A.986.986,0,0,0,2274.337,468.6Z" transform="translate(-2263.155 -468.088)" fill="#b7d3f3"/>
            <path id="Path_5060" data-name="Path 5060" d="M2248.3,491.09a.986.986,0,1,0,.294,1.363A.986.986,0,0,0,2248.3,491.09Z" transform="translate(-2243.934 -485.166)" fill="#b7d3f3"/>
            <path id="Path_5061" data-name="Path 5061" d="M2236.5,524.77a.986.986,0,1,0,.986.986A.986.986,0,0,0,2236.5,524.77Z" transform="translate(-2235.515 -510.462)" fill="#b7d3f3"/>
            <path id="Path_5062" data-name="Path 5062" d="M2245.4,562.459a.986.986,0,1,0,1.4,0A.986.986,0,0,0,2245.4,562.459Z" transform="translate(-2242.687 -538.421)" fill="#b7d3f3"/>
            <path id="Path_5063" data-name="Path 5063" d="M2269.934,587.058a.986.986,0,1,0,1.395,0A.986.986,0,0,0,2269.934,587.058Z" transform="translate(-2261.029 -556.811)" fill="#b7d3f3"/>
          </g>
        </g>
        <g id="Group_1942" data-name="Group 1942" transform="translate(23.541 10.077)">
          <path id="Path_5064" data-name="Path 5064" d="M2306.5,525.756a.986.986,0,1,1,.986.986A.986.986,0,0,1,2306.5,525.756Z" transform="translate(-2306.503 -513.435)" fill="#b7d3f3"/>
          <g id="Group_1940" data-name="Group 1940" transform="translate(0.852)">
            <rect id="Rectangle_826" data-name="Rectangle 826" width="0.269" height="12.321" fill="#b7d3f3"/>
          </g>
          <g id="Group_1941" data-name="Group 1941" transform="translate(0.613 6.858)">
            <rect id="Rectangle_827" data-name="Rectangle 827" width="8.304" height="0.808" transform="translate(0 5.128) rotate(-38.135)" fill="#b7d3f3"/>
          </g>
        </g>
      </g>
      <g id="Group_1946" data-name="Group 1946" transform="translate(170.189 45.836)">
        <path id="Path_5065" data-name="Path 5065" d="M1643.609,997.14s-5.614-2.936-7.335-2.458-8.686,3.255-9.56,4.518c-1.363,1.971-3.8,5.127-2.226,5.29s15.259-.435,16.816-.718S1646.377,1001.614,1643.609,997.14Z" transform="translate(-1623.977 -900.446)" fill="#ffb27d"/>
        <path id="Path_5066" data-name="Path 5066" d="M1901,791.152l-.063,61.664s7.268,6.43,33.637,6.388c.657,0,1.326,0,2.01-.011,15.119-.2,18.867-20.081,19.115-38.332a194.856,194.856,0,0,0-2.121-29.945C1917.161,779.463,1901,791.152,1901,791.152Z" transform="translate(-1831.022 -744.396)" fill="#fff"/>
        <path id="Path_5067" data-name="Path 5067" d="M1683.138,853.928c5.413,1.974,36.471,1.012,39.357-.161,1.48-.6,7.327-7.015,13.092-14.763l.005-.005c5.457-7.328,10.856-15.853,12.406-21.758a36.033,36.033,0,0,0-1.386-22.175s-7.88.744-10.912,3.061-18.266,39.022-20.638,40.185-31.3,5.755-34.485,7.714C1680.576,846.026,1677.73,851.955,1683.138,853.928Z" transform="translate(-1665.73 -751.259)" fill="#fff"/>
        <path id="Path_5068" data-name="Path 5068" d="M1969.6,755.258l.187,1.911s.033,6.026,7.474,6.218,12.722-3.529,12.1-8.123c-.994-3.51-1.948-5.9-2.271-8.846a20.89,20.89,0,0,1-.07-3.6l-14.29,1.035-4.138,1.075Z" transform="translate(-1881.597 -712.196)" fill="#ffb27d"/>
        <path id="Path_5069" data-name="Path 5069" d="M1968.587,744.923l1.011,10.335a12.114,12.114,0,0,0,5.246.659c6.556-.607,12.087-11.769,12.17-13.1Z" transform="translate(-1881.597 -712.196)" fill="#ef9f6a"/>
        <path id="Path_5070" data-name="Path 5070" d="M1953.852,679.7s18.61,2,19.677-9.609,4.188-19.168-7.649-20.936-14.555,2.449-15.854,6.238S1949.039,678.876,1953.852,679.7Z" transform="translate(-1867.229 -641.867)" fill="#ffb27d"/>
        <path id="Path_5071" data-name="Path 5071" d="M2032.814,962.779c.658,0,1.326,0,2.01-.011,15.119-.2,18.867-20.081,19.115-38.332C2052.209,925.5,2028.79,940.332,2032.814,962.779Z" transform="translate(-1929.264 -847.972)" fill="#ebf4ff"/>
        <path id="Path_5072" data-name="Path 5072" d="M2022.491,997.14s-5.614-2.936-7.335-2.458-8.685,3.255-9.559,4.518c-1.363,1.971-3.8,5.127-2.227,5.29s15.259-.435,16.817-.718S2025.26,1001.614,2022.491,997.14Z" transform="translate(-1907.218 -900.446)" fill="#ffb27d"/>
        <path id="Path_5073" data-name="Path 5073" d="M2072.848,799.817s11.275,1.432,17.4,7.261c5.568,5.3,22.775,32.105,27.735,41.864.79,1.554-.676,5.235-2.03,6.333-3.391,2.748-10.676,5.2-29.391,3.892l-16.7-.852s-1.9-7.287,1.538-9.167l26.641-2.88s-16.768-14.376-20.147-18.644S2072.848,799.817,2072.848,799.817Z" transform="translate(-1956.916 -754.811)" fill="#fff"/>
        <path id="Path_5074" data-name="Path 5074" d="M1960.469,623.647a.278.278,0,0,0,.066-.088c.136-.309.6-.286.6-.286a3.45,3.45,0,0,0-1.68.046c.022-.018-.023-.061-.122-.121a2.692,2.692,0,0,0-1.17-1.429,2.978,2.978,0,0,1,.6,1.157c-2.094-.868-8.463-2.633-13.144-.062a38.45,38.45,0,0,1-10.825,4.032c.036.392-.246,8.145,3.709,9.185.027,1.753,10.212-.54,13.234,1.476s.691,6.012,4.028,7.053l.017.005a2.01,2.01,0,0,0,2.2-.743c.683-.928,1.555-1.732,2.429-1.491,1.875.517,2.591,2.883,1.681,3.781-1.08,1.067-.381,6.9-.381,6.9s3.695-7.858,6.33-11.478C1970.231,638.577,1968.417,626.619,1960.469,623.647Z" transform="translate(-1856.333 -621.525)" fill="#233862"/>
        <g id="Group_1945" data-name="Group 1945" transform="translate(79.837 40.733)">
          <g id="Group_1944" data-name="Group 1944" transform="translate(0 11.269)">
            <path id="Path_5075" data-name="Path 5075" d="M1940.628,895.625a9.7,9.7,0,0,0,3.089,6.269l2.787,2.568a1.632,1.632,0,0,0,2.388-.192l3.453-4.385a5.823,5.823,0,0,0,1.219-4.153c-.323-3.318-.924-9.71-1.406-15.88-.392-5-.706-9.855-.73-12.81-.076-9.433,1.8-39.514,1.8-39.514l-2.261.118a121.119,121.119,0,0,0-8.557,27.564,105.209,105.209,0,0,0-1.563,12.385S1939.663,884.777,1940.628,895.625Z" transform="translate(-1940.248 -827.529)" fill="#c65447"/>
          </g>
          <path id="Path_5076" data-name="Path 5076" d="M1981.96,815.26l-6.292-1.508a.953.953,0,0,0-.8,1.1c.023,1.025,1.772,4.02,2.547,4.259S1983.448,817.333,1981.96,815.26Z" transform="translate(-1966.129 -805.961)" fill="#ba4c43"/>
          <path id="Path_5077" data-name="Path 5077" d="M2008.706,785.929c.049-.981-3.675-3.041-3.675-3.041s-5.788,8.355-14.547,8.482c0,0,2.5,4.858,5.438,6.116C1995.922,797.487,2008.417,791.753,2008.706,785.929Z" transform="translate(-1977.803 -782.888)" fill="#e9f3fe"/>
          <path id="Path_5078" data-name="Path 5078" d="M1962.589,793.362s-4.645-4.655-4.661-7.637a6.059,6.059,0,0,0-4.458.634s-.943,7.459.517,10.428C1953.986,796.787,1960.669,795.769,1962.589,793.362Z" transform="translate(-1949.908 -784.88)" fill="#e9f3fe"/>
        </g>
      </g>
      <g id="Group_1947" data-name="Group 1947" transform="translate(133.252 149.173)">
        <rect id="Rectangle_828" data-name="Rectangle 828" width="296.996" height="123.716" transform="translate(12.122 10.281)" fill="#abc8f7"/>
        <rect id="Rectangle_829" data-name="Rectangle 829" width="12.122" height="148.734" transform="translate(0 10.281)" fill="#88b0ea"/>
        <rect id="Rectangle_830" data-name="Rectangle 830" width="12.122" height="159.015" transform="translate(296.996)" fill="#88b0ea"/>
        <rect id="Rectangle_831" data-name="Rectangle 831" width="306.885" height="10.281" fill="#88b0ea"/>
      </g>
      <g id="Group_1952" data-name="Group 1952" transform="translate(343.154 81.146)">
        <path id="Path_5090" data-name="Path 5090" d="M2309.172,811.408h75.738l6.511-50h-75.738Z" transform="translate(-2309.172 -761.406)" fill="#233862"/>
        <path id="Path_5091" data-name="Path 5091" d="M2316.864,811.408H2392.6l6.511-50h-75.738Z" transform="translate(-2314.923 -761.406)" fill="#2b478b"/>
        <path id="Path_5092" data-name="Path 5092" d="M2455.078,878.148h17.649l-7.882-51.577H2447.2Z" transform="translate(-2412.354 -810.122)" fill="#233862"/>
        <rect id="Rectangle_835" data-name="Rectangle 835" width="23.133" height="4.455" transform="translate(57.974 68.027) rotate(180)" fill="#233862"/>
      </g>
      <g id="Group_1961" data-name="Group 1961" transform="translate(89.772 65.72)">
        <path id="Path_5100" data-name="Path 5100" d="M1471.264,902.034s-3.522,3-4.287,10.766c-.581,5.9,3.512,51.7,6.592,55.345,8.665,10.243,19.526,5.915,23.78,7.469l4.013-3.606s-14.11-10.414-15.184-13.812C1482.044,945.116,1484.606,906.974,1471.264,902.034Z" transform="translate(-1426.15 -851.109)" fill="#f99746"/>
        <path id="Path_5101" data-name="Path 5101" d="M1390.654,714.709s.239-8.4-10.841-10.049-14.14.942-16.024,3.768-5.416,14.363-5.062,18.955,12.99,10.269,12.784,12.948S1390.654,714.709,1390.654,714.709Z" transform="translate(-1345.249 -703.174)" fill="#163560"/>
        <path id="Path_5102" data-name="Path 5102" d="M1675.207,1572.182c-.359,2.839,3.512,3.674,8.016,4.069s3.107,1.285,9.25,2.652,8.682-.264,9.16-1.1c.425-.74-2.408-2.025-5.424-3.471-.38-.181-.759-.367-1.139-.553-3.394-1.67-5.216-4.888-7.8-7.905-2.448-2.858-4.552-11.8-4.552-11.8l-8.338-2.135s2.076,8.052,2.775,11.482c.411,2.018-.379,4.228-1.071,5.906A11.328,11.328,0,0,0,1675.207,1572.182Z" transform="translate(-1581.238 -1336.963)" fill="#ffb27d"/>
        <path id="Path_5103" data-name="Path 5103" d="M1685.609,1627.748c4.5.395,3.107,1.285,9.25,2.652s8.682-.264,9.16-1.1c.425-.74-2.408-2.025-5.424-3.471l-.05.051a17.325,17.325,0,0,1-9.37-.23c-4.05-1.281-7.917-3.914-10.707-4.821a11.32,11.32,0,0,0-.875,2.849C1677.234,1626.517,1681.105,1627.353,1685.609,1627.748Z" transform="translate(-1583.625 -1388.459)" fill="#b24940"/>
        <path id="Path_5104" data-name="Path 5104" d="M1394.164,1150.369s55.742,5.783,64.93,14.316,7.552,88.03,7.552,88.03c-1.43,1.484-2.486,1.45-4.746,1.272-2.168-.171-6.591-2.036-6.591-2.036s-11.938-39.035-12.087-48.074-2.037-24.376-5.829-25.28-48.919,4.156-53.866-10.1,3.267-25.982,3.267-25.982Z" transform="translate(-1362.622 -1030.888)" fill="#163560"/>
        <path id="Path_5105" data-name="Path 5105" d="M1320.861,981.48a25.365,25.365,0,0,0,13.922,4.351c12.913.47,29.026-1.07,32.2-4.065a5.458,5.458,0,0,0,1.339-3.68c.35-4.955-2.017-13.107-3.606-19.853-1.031-4.383-1.734-8.169-1.159-10.1,1.752-5.891,7.195-17.9,7.665-21.842s-4.239-25.084-10.748-27.7-31.636,0-31.636,0c-9.815,1.992-10.228,22.919-6.969,40.731.085.459.17.915.258,1.367C1325.656,958.769,1314.15,976.984,1320.861,981.48Z" transform="translate(-1315.357 -847.66)" fill="#f99746"/>
        <g id="Group_1958" data-name="Group 1958" transform="translate(19.57 9.891)">
          <path id="Path_5106" data-name="Path 5106" d="M1415.917,856.35c-.177,1.148-3.318,3.01-10.034,1.239-6.435-1.7-7.208-3.793-7.206-5.176,0-1.638,2.8-3.845,2.761-13.924l.772.152,12.974,2.569s-.295,4.083-.3,7.929C1414.871,852.369,1416.211,854.44,1415.917,856.35Z" transform="translate(-1394.703 -813.496)" fill="#ffb27d"/>
          <path id="Path_5107" data-name="Path 5107" d="M1425.645,841.66s-.295,4.083-.3,7.929c-7.26-.2-11.1-6.828-12.67-10.5Z" transform="translate(-1405.164 -813.946)" fill="#ed975d"/>
          <path id="Path_5108" data-name="Path 5108" d="M1422.195,777.859s-17.177.283-17.189-10.417-2.237-17.869,8.73-18.5,13.1,3.447,13.974,7.018S1426.663,777.51,1422.195,777.859Z" transform="translate(-1399.29 -746.503)" fill="#ffb27d"/>
          <path id="Path_5109" data-name="Path 5109" d="M1405.2,741.656s-4.7,12.553-11.921,14.409-10.349-.078-10.349-.078a20.441,20.441,0,0,0,6.685-12.076S1401.656,735.681,1405.2,741.656Z" transform="translate(-1382.934 -739.481)" fill="#163560"/>
          <path id="Path_5110" data-name="Path 5110" d="M1466.535,746.071s3.512,2.8,4.369,5.527,1.242,8.334,2.876,8.143c0,0,3.543-8.532-.439-13.359C1469.119,741.265,1466.535,746.071,1466.535,746.071Z" transform="translate(-1445.431 -742.877)" fill="#163560"/>
        </g>
        <path id="Path_5111" data-name="Path 5111" d="M1511.815,1557.621c-.041,2.862,3.9,3.246,8.417,3.12s3.23.919,9.485,1.569,8.6-1.263,8.979-2.147c.34-.784-2.617-1.735-5.775-2.824-.4-.135-.8-.277-1.194-.417-3.557-1.268-5.727-4.256-8.63-6.956-2.75-2.557,3.32-14.928,3.32-14.928l-7.958-3.938s-1.51,8.832-3.453,16.558c-.5,2-2.138,5.285-2.639,7.032A11.388,11.388,0,0,0,1511.815,1557.621Z" transform="translate(-1459.711 -1321.38)" fill="#ffb27d"/>
        <path id="Path_5112" data-name="Path 5112" d="M1322.074,1075.415c2.405,1.61,6.363,6.219,13.579,6.477,11.909-2.709,25.469-5.863,33.536-7.746.35-4.955-2.017-13.107-3.606-19.853-9.406,2.872-23.4-6.912-28.107-10.78-4.945-4.062-4.789-17.6-4.789-17.6l-9.95,9.458c.085.459.17.915.258,1.367C1326.526,1054.83,1315.363,1070.919,1322.074,1075.415Z" transform="translate(-1316.227 -943.72)" fill="#ed7d2b"/>
        <path id="Path_5113" data-name="Path 5113" d="M1520.232,1630.6c4.519-.127,3.23.918,9.485,1.569s8.6-1.263,8.979-2.146c.34-.784-2.617-1.735-5.775-2.824l-.043.057a17.341,17.341,0,0,1-9.336.851c-4.167-.806-8.3-2.977-11.174-3.557a11.386,11.386,0,0,0-.552,2.931C1511.774,1630.344,1515.713,1630.729,1520.232,1630.6Z" transform="translate(-1459.711 -1391.241)" fill="#c65447"/>
        <path id="Path_5114" data-name="Path 5114" d="M1331.219,1176.756c14.152-.4,56.422,2.971,64.543,9.093,9.995,7.535-18.559,89.031-18.559,89.031a36.91,36.91,0,0,1-4.365.2c-4.535-.513-6.382-1.9-6.382-1.9s.11-47.966,3.447-57.141c3.083-8.478,4.972-11.477,1.11-11.983s-52.065,5.643-56.089-8.909c-3.142-11.367,1.5-21.887,1.5-21.887S1318.163,1177.128,1331.219,1176.756Z" transform="translate(-1311.705 -1053.875)" fill="#1c468a"/>
        <path id="Path_5115" data-name="Path 5115" d="M1318.885,901.942s-9.831.834-10.6,8.6c-.581,5.9-4.857,47.75-1.778,51.39,8.665,10.243,37.56,12.414,41.814,13.968l1.17-4.844s-30.846-15.541-30.375-19.073S1328.314,900.544,1318.885,901.942Z" transform="translate(-1305.407 -851.018)" fill="#f99746"/>
        <path id="Path_5116" data-name="Path 5116" d="M1362.565,706.007s.705-4.482-5.511-5.639-6.333,12.047-7,15.23.994,5.09,3.365,5.284S1362.565,706.007,1362.565,706.007Z" transform="translate(-1338.674 -700.296)" fill="#163560"/>
        <g id="Group_1959" data-name="Group 1959" transform="translate(41.798 116.264)">
          <path id="Path_5117" data-name="Path 5117" d="M1473.614,1169.1s8.785-2.486,10.877-1.9,9.262,5.329,8.254,6.617-7.324-.772-10.23-.382-5.154,1.824-7.246,1.514a24.271,24.271,0,0,1-4.281-1.132Z" transform="translate(-1470.988 -1165.532)" fill="#ffb27d"/>
          <path id="Path_5118" data-name="Path 5118" d="M1481.39,1164.438s4.3-2.208,5.521-3.465a.342.342,0,0,1,.534.062c.328.517.634,1.514-.873,2.506A8.107,8.107,0,0,1,1481.39,1164.438Z" transform="translate(-1478.764 -1160.872)" fill="#ffb27d"/>
        </g>
        <g id="Group_1960" data-name="Group 1960" transform="translate(71.199 120.899)">
          <path id="Path_5119" data-name="Path 5119" d="M1591.472,1179.236s9.116.5,10.907,1.728,7.031,8.045,5.66,8.938-6.677-3.107-9.552-3.681-5.467.053-7.346-.919a24.31,24.31,0,0,1-3.681-2.461Z" transform="translate(-1587.459 -1179.236)" fill="#ffb27d"/>
        </g>
      </g>
      <g id="Group_1970" data-name="Group 1970" transform="translate(258.33 111.255)">
        <g id="Group_1969" data-name="Group 1969" transform="translate(0)">
          <path id="Path_5127" data-name="Path 5127" d="M2043.761,1222.164s-5.083.914-6.511,1.885-2.3,4.21-1.681,3.943,7.4-2.906,7.4-2.906Z" transform="translate(-2019.66 -1135.963)" fill="#ffb27d"/>
          <path id="Path_5128" data-name="Path 5128" d="M2074.539,1041.879a2.663,2.663,0,0,0-5.007-1.192,12.8,12.8,0,0,0-1.542,4.95c-.514,6.169-.048,26.635-2.937,29.853s-8.507,10.617-8.507,10.617l1.4,2.5s14.688-3.828,16.219-9.177C2075.292,1075.513,2074.854,1053.418,2074.539,1041.879Z" transform="translate(-2035.493 -999.247)" fill="#fff"/>
          <path id="Path_5129" data-name="Path 5129" d="M2034.795,1208.856s1.634,18.358-1.525,20.908-43.618,5.416-45.206,6.249,7.083,8.015,9.917,35.208c0,0-8.015,3.294-11.662,1.885,0,0-16.818-36.18-12.451-45.974,2.016-4.521,28.715-15.474,38.907-16.846A201.39,201.39,0,0,1,2034.795,1208.856Z" transform="translate(-1973.145 -1126.014)" fill="#2c3a64"/>
          <path id="Path_5130" data-name="Path 5130" d="M2070.907,1448.491a7.008,7.008,0,0,1-1.584,5.314,7.623,7.623,0,0,0-2.03,4.983,1.788,1.788,0,0,0,2.843,1.446l12.467-9.148a2.223,2.223,0,0,0,.336-3.281c-.771-.855-1.657-1.859-2.3-2.653-1.413-1.733-4.28-1.859-4.28-1.859Z" transform="translate(-2043.527 -1301.272)" fill="#2c3a64"/>
          <path id="Path_5131" data-name="Path 5131" d="M2020.181,1448.491a7.005,7.005,0,0,1-1.584,5.314,7.624,7.624,0,0,0-2.03,4.983,1.788,1.788,0,0,0,2.844,1.446l12.467-9.148a2.223,2.223,0,0,0,.337-3.281c-.771-.855-1.657-1.859-2.3-2.653-1.413-1.733-4.28-1.859-4.28-1.859Z" transform="translate(-2005.606 -1301.272)" fill="#2c3a64"/>
          <path id="Path_5132" data-name="Path 5132" d="M2144.591,1017.263c3.79,10.909,4.811,31.165,7.093,50.177l-35.526-5.453s-10.07-44.235-.8-48.657c3.663-1.747,8.182-1.968,11.842-2.639C2132.5,1009.719,2142.823,1012.174,2144.591,1017.263Z" transform="translate(-2076.527 -977.716)" fill="#c65447"/>
          <path id="Path_5133" data-name="Path 5133" d="M2074.221,1208.856s1.634,18.358-1.524,20.908-41.647,5.052-43.235,5.885,5.113,8.378,7.947,35.572c0,0-8.015,3.294-11.662,1.885,0,0-20.273-35.4-17.008-43.3,2.682-6.486,33.272-18.15,43.464-19.522A201.387,201.387,0,0,1,2074.221,1208.856Z" transform="translate(-1999.487 -1126.014)" fill="#35488b"/>
          <path id="Path_5134" data-name="Path 5134" d="M2126.361,970.914s.38.5.874,1.319q.144.236.3.514a16.5,16.5,0,0,1,1.631,3.965q.087.354.154.72c.274,1.528-1.395,2.265-.4,3.547,2.042,2.632,10.98-1.727,11.752-4.969.479-2.015-2.207-3.173-4.51-6.751-.086-.137-.175-.278-.26-.422a30.182,30.182,0,0,1-2.752-5.96Z" transform="translate(-2087.685 -942.129)" fill="#ffb27d"/>
          <path id="Path_5135" data-name="Path 5135" d="M2129.823,991.132q.144.236.3.514a16.5,16.5,0,0,1,1.631,3.965c3.574-.737,7-7.454,7-7.454s-8.1,1.652-8.229,1.652A6.011,6.011,0,0,0,2129.823,991.132Z" transform="translate(-2090.272 -961.027)" fill="#ed975d"/>
          <g id="Group_1968" data-name="Group 1968" transform="translate(25.236)">
            <path id="Path_5136" data-name="Path 5136" d="M2101.381,938.871s10.486-3.271,9.1-12.371c-1.5-9.821-8.7-13.139-11.993-11.6-6.566,3.067-8.646,7.61-8.176,10.737S2095.624,940.72,2101.381,938.871Z" transform="translate(-2085.924 -905.992)" fill="#ffb27d"/>
            <g id="Group_1967" data-name="Group 1967">
              <path id="Path_5137" data-name="Path 5137" d="M2097.638,906.486s-.887-3.758-2.052-5.331c0,0,.469-4.467-1.364-4.349s-1.459,2.352-1.991,2.2-4.712-5.725-6.257-4.5-6.494,6.989-10.646,6.357-3.314-13.811,9.962-17.257S2104.035,893.9,2097.638,906.486Z" transform="translate(-2073.116 -882.468)" fill="#2c3a64"/>
              <path id="Path_5138" data-name="Path 5138" d="M2150.124,883.223a4.6,4.6,0,0,0-1.647-2.542,4.838,4.838,0,0,1,.73,2.507C2149.041,884.206,2150.124,883.223,2150.124,883.223Z" transform="translate(-2129.454 -880.681)" fill="#2c3a64"/>
              <path id="Path_5139" data-name="Path 5139" d="M2151.485,885.451a2.609,2.609,0,0,1,2.581-.368,2.079,2.079,0,0,0-1.916,1.257Z" transform="translate(-2131.702 -883.81)" fill="#2c3a64"/>
            </g>
          </g>
          <path id="Path_5140" data-name="Path 5140" d="M2146.061,1008.751s6.145-9.838,6.972-9.806,3.027,1.9,3.124,2.941S2151.53,1009.427,2146.061,1008.751Z" transform="translate(-2102.412 -969.091)" fill="#fff"/>
          <path id="Path_5141" data-name="Path 5141" d="M2131.9,1015.18a23.278,23.278,0,0,0,2.345,5.708s-2.642.677-3.91-3.151C2129.83,1016.208,2131.9,1015.18,2131.9,1015.18Z" transform="translate(-2090.597 -981.228)" fill="#fff"/>
          <path id="Path_5142" data-name="Path 5142" d="M2114.51,1196.555c1.2-1.457,5.483-1.625,7.55-1.618.689,0,1.132.024,1.132.024v3.49s-8.111,3.131-8.682,2.56A3.333,3.333,0,0,1,2114.51,1196.555Z" transform="translate(-2078.186 -1115.609)" fill="#ffb27d"/>
          <path id="Path_5143" data-name="Path 5143" d="M2158.438,1030.894a6.224,6.224,0,0,1,10.458-5.116c.512.482,1.039,1.027,1.579,1.645,7.736,8.837,3.673,36.99-.439,39.423s-23.611,4.8-23.611,4.8-.821-3.619,0-5.676c0,0,14.358-8.775,14.358-9.442C2160.782,1056.052,2159.3,1040.164,2158.438,1030.894Z" transform="translate(-2102.411 -987.876)" fill="#fff"/>
        </g>
      </g>
      <rect id="Rectangle_838" data-name="Rectangle 838" width="4.508" height="25.018" transform="translate(321.747 283.17)" fill="#c8dbf4"/>
      <rect id="Rectangle_839" data-name="Rectangle 839" width="4.508" height="25.018" transform="translate(342.746 283.17)" fill="#c8dbf4"/>
      <g id="Group_1979" data-name="Group 1979" transform="translate(61.799 110.703)">
        <rect id="Rectangle_181" data-name="Rectangle 181" width="11.174" height="79.427" transform="translate(53.378 192.231) rotate(180)" fill="#99a2a9"/>
        <rect id="Rectangle_182" data-name="Rectangle 182" width="6.189" height="22.104" transform="translate(21.18 113.622) rotate(180)" fill="#99a2a9"/>
        <rect id="Rectangle_183" data-name="Rectangle 183" width="73.617" height="16.03" rx="1.402" transform="translate(88.608 120.529) rotate(180)" fill="#303030"/>
        <path id="Rectangle_184" data-name="Rectangle 184" d="M1.187,0H10.4a1.188,1.188,0,0,1,1.188,1.188V97.26A1.187,1.187,0,0,1,10.4,98.448H1.187A1.187,1.187,0,0,1,0,97.26V1.187A1.187,1.187,0,0,1,1.187,0Z" transform="translate(22.986 97.776) rotate(173.304)" fill="#303030"/>
        <path id="Path_2040" data-name="Path 2040" d="M339.246,154.431h0a1.873,1.873,0,0,1,2.078,1.638l10.222,86.88a1.876,1.876,0,0,1-1.642,2.078h0a1.878,1.878,0,0,1-2.078-1.638L337.6,156.509A1.879,1.879,0,0,1,339.246,154.431Z" transform="translate(-331.267 -151.087)" fill="#424249"/>
        <path id="Path_2041" data-name="Path 2041" d="M353.068,207.491a6.506,6.506,0,1,0,6.506-6.506A6.5,6.5,0,0,0,353.068,207.491Z" transform="translate(-283.056 -6.02)" fill="#303030"/>
        <path id="Path_2042" data-name="Path 2042" d="M338.745,207.491a6.5,6.5,0,1,0,6.5-6.506A6.5,6.5,0,0,0,338.745,207.491Z" transform="translate(-327.675 -6.02)" fill="#303030"/>
        <path id="Path_2043" data-name="Path 2043" d="M338.235,205.79h77.638a5.469,5.469,0,0,0-5.469-5.469h-66.7a5.47,5.47,0,0,0-5.473,5.469Z" transform="translate(-329.264 -8.089)" fill="#99a2a9"/>
        <rect id="Rectangle_185" data-name="Rectangle 185" width="2.806" height="72.504" transform="translate(46.814 192.231) rotate(180)" fill="#99a2a9" style="mix-blend-mode: soft-light;isolation: isolate"/>
      </g>
      <g id="Group_1980" data-name="Group 1980" transform="translate(286.839 110.703)">
        <rect id="Rectangle_181-2" data-name="Rectangle 181" width="11.174" height="79.427" transform="translate(35.23 112.804)" fill="#99a2a9"/>
        <rect id="Rectangle_182-2" data-name="Rectangle 182" width="6.189" height="22.104" transform="translate(67.428 91.518)" fill="#99a2a9"/>
        <rect id="Rectangle_183-2" data-name="Rectangle 183" width="73.617" height="16.03" rx="1.402" transform="translate(0 104.5)" fill="#303030"/>
        <path id="Rectangle_184-2" data-name="Rectangle 184" d="M1.187,0H10.4a1.187,1.187,0,0,1,1.187,1.187V97.26A1.188,1.188,0,0,1,10.4,98.448H1.187A1.187,1.187,0,0,1,0,97.26V1.187A1.187,1.187,0,0,1,1.187,0Z" transform="translate(77.101 0) rotate(6.696)" fill="#303030"/>
        <path id="Path_2040-2" data-name="Path 2040" d="M349.9,154.431h0a1.873,1.873,0,0,0-2.078,1.638L337.6,242.949a1.876,1.876,0,0,0,1.642,2.078h0a1.878,1.878,0,0,0,2.078-1.638l10.222-86.88A1.879,1.879,0,0,0,349.9,154.431Z" transform="translate(-269.276 -151.087)" fill="#424249"/>
        <path id="Path_2041-2" data-name="Path 2041" d="M366.08,207.491a6.506,6.506,0,1,1-6.506-6.506A6.5,6.5,0,0,1,366.08,207.491Z" transform="translate(-347.484 -6.02)" fill="#303030"/>
        <path id="Path_2042-2" data-name="Path 2042" d="M351.753,207.491a6.5,6.5,0,1,1-6.5-6.506A6.5,6.5,0,0,1,351.753,207.491Z" transform="translate(-274.215 -6.02)" fill="#303030"/>
        <path id="Path_2043-2" data-name="Path 2043" d="M415.872,205.79H338.235a5.469,5.469,0,0,1,5.469-5.469h66.7a5.47,5.47,0,0,1,5.473,5.469Z" transform="translate(-336.235 -8.088)" fill="#99a2a9"/>
        <rect id="Rectangle_185-2" data-name="Rectangle 185" width="2.806" height="72.504" transform="translate(41.794 119.727)" fill="#99a2a9" style="mix-blend-mode: soft-light;isolation: isolate"/>
      </g>
      <g id="Group_1977" data-name="Group 1977" transform="translate(375.732 197.526)">
        <g id="Group_1972" data-name="Group 1972" transform="translate(64.273 48.071)">
          <path id="Path_5144" data-name="Path 5144" d="M2735.918,1302.859s-8.406-9.861-.476-16.089c0,0,5.79-3.483,10.5-3.186,0,0-6.708,11.18-4.551,12.3s6.577-13,6.577-13,13.156-1.24,17.382.806c0,0-11.269,9.171-8.9,9.725s14.536-8.444,14.536-8.444,12.236,2.117,11.563,9.583-4.9,9.76-6.751,9.557-12.687-4.373-12.928-2.854,6.274,6.5,10.845,6.745c0,0-8.656,9.495-14.385,6.732s-6.207-7.118-9.778-8.761-6.623-1.647-5.152.023,7.938,3.306,9.973,6.928,3.863,6.067-2.069,5.158-15.567-5.278-15.977-10.251Z" transform="translate(-2721.599 -1282.514)" fill="#82b378"/>
          <g id="Group_1971" data-name="Group 1971" transform="translate(0 12.158)">
            <path id="Path_5145" data-name="Path 5145" d="M2761.717,1345.487s-33.246-1.372-40.615,8.117a24.05,24.05,0,0,1-6.646,9.274l-.784,2.12s5.778-6.059,7.84-6.421C2721.513,1358.578,2718.321,1346.789,2761.717,1345.487Z" transform="translate(-2706.784 -1345.418)" fill="#82b378"/>
            <path id="Path_5146" data-name="Path 5146" d="M2685.707,1432.285a20.878,20.878,0,0,0-7.672,14.688l1.295.12s2.306-9.745,6.436-13.547S2685.707,1432.285,2685.707,1432.285Z" transform="translate(-2678.034 -1414.825)" fill="#82b378"/>
          </g>
        </g>
        <g id="Group_1974" data-name="Group 1974" transform="translate(0 21.125)">
          <path id="Path_5147" data-name="Path 5147" d="M2394.631,1177.935s13.435-7.476,7.2-17.687c0,0-4.991-6.274-10.353-7.9,0,0,2.821,15.211-.042,15.561s-1.921-17.176-1.921-17.176-14.111-6.835-19.657-6.314c0,0,8.724,14.869,5.863,14.5s-12.657-15.416-12.657-15.416-14.481-2.723-16.829,5.856,1.4,12.882,3.541,13.424,15.917.4,15.555,2.189-9.671,4.624-14.854,3c0,0,5.685,14.146,13.2,13.451s9.852-5.339,14.5-5.684,8.046.916,5.717,2.162-10.2.383-13.961,3.566-6.811,5.142.161,6.592,19.495.59,22.013-4.769Z" transform="translate(-2345.49 -1143.098)" fill="#a8d29f"/>
          <g id="Group_1973" data-name="Group 1973" transform="translate(7.358 8.968)">
            <path id="Path_5148" data-name="Path 5148" d="M2383.56,1189.5s37.527,12.265,41.783,25.87a28.531,28.531,0,0,0,3.542,13.066l-.007,2.683s-3.91-9.133-6.053-10.391C2422.825,1220.724,2431.263,1208.943,2383.56,1189.5Z" transform="translate(-2383.56 -1189.496)" fill="#82b378"/>
            <path id="Path_5149" data-name="Path 5149" d="M2610.6,1383.961a24.775,24.775,0,0,1,2.437,19.51l-1.49-.4s1.479-11.79-1.536-17.729S2610.6,1383.961,2610.6,1383.961Z" transform="translate(-2565.27 -1345.025)" fill="#82b378"/>
          </g>
        </g>
        <g id="Group_1976" data-name="Group 1976" transform="translate(58.929)">
          <path id="Path_5150" data-name="Path 5150" d="M2661.97,1079.46s-17.656-9.95-9.368-23.367c0,0,6.624-8.234,13.7-10.337,0,0-3.827,20.03-.056,20.512s2.655-22.627,2.655-22.627,18.65-8.909,25.957-8.182c0,0-11.606,19.537-7.832,19.076s16.795-20.231,16.795-20.231,19.106-3.484,22.141,7.841-1.933,16.97-4.763,17.67-20.985.414-20.52,2.773,12.715,6.164,19.558,4.062c0,0-7.6,18.605-17.5,17.635s-12.948-7.108-19.077-7.6-10.613,1.15-7.552,2.809,13.438.577,18.377,4.8,8.941,6.827-.259,8.688-25.7.637-28.982-6.445Z" transform="translate(-2650.388 -1033.8)" fill="#b1e2a6"/>
          <g id="Group_1975" data-name="Group 1975" transform="translate(2.149 11.859)">
            <path id="Path_5151" data-name="Path 5151" d="M2745.653,1095.158s-49.555,15.9-55.262,33.8a37.617,37.617,0,0,1-4.762,17.2l-.01,3.536s5.22-12.01,8.053-13.653C2693.672,1136.041,2682.634,1120.45,2745.653,1095.158Z" transform="translate(-2680.959 -1095.158)" fill="#82b378"/>
            <path id="Path_5152" data-name="Path 5152" d="M2666.178,1349.863s-7.667,11.574-3.353,25.7l1.966-.522s-1.864-15.551,2.152-23.359S2666.178,1349.863,2666.178,1349.863Z" transform="translate(-2661.508 -1298.864)" fill="#82b378"/>
          </g>
        </g>
        <path id="Path_5153" data-name="Path 5153" d="M2562.008,1505.493a34.638,34.638,0,0,0,34.732-34.543l-69.275-.188A34.638,34.638,0,0,0,2562.008,1505.493Z" transform="translate(-2492.293 -1386.307)" fill="#f99746"/>
        <path id="Path_5154" data-name="Path 5154" d="M2588.152,1505.3a34.662,34.662,0,0,1-38.846-34.479l8.6.023A34.644,34.644,0,0,0,2588.152,1505.3Z" transform="translate(-2509.914 -1386.354)" fill="#fcc191"/>
        <path id="Path_5155" data-name="Path 5155" d="M2594.71,1641.49l-70.232-.191h0a4.274,4.274,0,0,1,4.285-4.262l61.685.168a4.273,4.273,0,0,1,4.262,4.285Z" transform="translate(-2489.884 -1520.446)" fill="#f99746"/>
        <rect id="Rectangle_840" data-name="Rectangle 840" width="71.202" height="1.062" transform="translate(34.032 84.451) rotate(0.156)" fill="#f99746"/>
      </g>
    </g>
    <rect id="Rectangle_841" data-name="Rectangle 841" width="528" height="4" transform="translate(172.036 675.406)" fill="#f2fbfb"/>
  </g>
</svg>
