<svg xmlns="http://www.w3.org/2000/svg" xmlns:xlink="http://www.w3.org/1999/xlink" width="453" height="345" viewBox="0 0 453 345">
  <defs>
    <clipPath id="clip-student_feedback">
      <rect width="453" height="345"/>
    </clipPath>
  </defs>
  <g id="student_feedback" clip-path="url(#clip-student_feedback)">
    <ellipse id="Ellipse_200" data-name="Ellipse 200" cx="220.5" cy="15" rx="220.5" ry="15" transform="translate(8 289)" fill="#f99746" opacity="0.09"/>
    <path id="Path_5724" data-name="Path 5724" d="M625.5,452.327s73.968-16.224,56.828-137.484C651.729,98.386,249.483,137.82,284.7,274.345c22.14,85.833-41.607,36.2,10.161,173.3L474.3,442.961Z" transform="translate(-231.901 -144.89)" fill="#f9ddbf" opacity="0.26"/>
    <path id="Path_5826" data-name="Path 5826" d="M58.622,216.889l1.59-1.59a.62.62,0,0,0-.878-.877l-1.59,1.59-1.59-1.59a.62.62,0,0,0-.878.877l1.591,1.59-1.591,1.591a.62.62,0,1,0,.878.877l1.59-1.59,1.59,1.59a.62.62,0,1,0,.878-.877Z" transform="translate(-28.094 -72.926)" fill="#c4c4c4" opacity="0.2"/>
    <g id="Group_3047" data-name="Group 3047" transform="translate(65.507 89.802)">
      <g id="Group_3046" data-name="Group 3046" transform="translate(52.085)">
        <rect id="Rectangle_983" data-name="Rectangle 983" width="164.643" height="117.452" transform="translate(0 0)" fill="#e5e5e5"/>
        <path id="Path_5672" data-name="Path 5672" d="M170.269,305.26V422.713H334.912V305.26ZM328.25,415.654H176.931V312.475H328.25Z" transform="translate(-170.269 -305.26)" fill="#a7a7a7"/>
      </g>
      <path id="Path_5673" data-name="Path 5673" d="M162.964,327.681a13.4,13.4,0,0,1-8.06-4.143,37.208,37.208,0,0,1-1.328,12.889s.317,20.778,8.764,18.28,3.013-16.02,3.013-16.02C163.4,335.573,162.988,330.883,162.964,327.681Z" transform="translate(-129.447 -292.928)" fill="#f7936a"/>
      <path id="Path_5674" data-name="Path 5674" d="M158.524,313.292s9.668-1.023,11.433,2.882-.278,9.134.28,10.9.278,12.9-2.882,13.178-13.108-6.88-13.386-15.247S156.106,313.411,158.524,313.292Z" transform="translate(-129.196 -299.923)" fill="#ffbb9a"/>
      <path id="Path_5675" data-name="Path 5675" d="M162.678,329.18c.045-.005.092-.013.139-.017.315.005.595.015.878.023.1-.234.183-.464.288-.7.193-.427.378-.857.571-1.285.283-.814.519-1.636.745-2.458a12.149,12.149,0,0,1-1.343-.228q-1.854.892-3.711,1.779c-.24.114-.482.221-.72.333A39.292,39.292,0,0,1,162.678,329.18Z" transform="translate(-125.433 -292.268)" fill="#fff"/>
      <path id="Path_5676" data-name="Path 5676" d="M185.533,347.647a39.255,39.255,0,0,0,3.756-3.175c.509-.7,2.72-5.8,3.969-8.154s7.843-4.962,8.38-3.284-2.226,2.045-5.145,4.044c0,0,.306.4.6.42s4.865,6.111,1.537,8.283-7.675,2.335-10.564,4.867C188.07,350.648,185.756,349.32,185.533,347.647Z" transform="translate(-107.885 -286.881)" fill="#ffbb9a"/>
      <path id="Path_5677" data-name="Path 5677" d="M156.853,426.131s-1.166,6.962-.444,8.888c.553,1.475,21.512,1.69,22.691.407s-.785-3.515-1.817-4.031-11.733-5.208-11.733-5.208Z" transform="translate(-127.694 -223.706)"/>
      <path id="Path_5678" data-name="Path 5678" d="M154.111,426.923h-8.95s-4.721,6.413-4.651,8.034,7.258,4.651,8.879,4.651,7.4-3.875,7.329-4.58S154.111,426.923,154.111,426.923Z" transform="translate(-138.263 -223.172)"/>
      <path id="Path_5679" data-name="Path 5679" d="M170.565,324.468a4.613,4.613,0,0,0,2.551-5.16c-.744-3.718-2.6-6.042-8.087-7.576s-10.507-1.03-11.18,3.529c0,0,2.581,7.953,8.95,7.581S171.106,322.471,170.565,324.468Z" transform="translate(-129.263 -301.419)" fill="#141c1e"/>
      <path id="Path_5680" data-name="Path 5680" d="M172.332,331.8a4.45,4.45,0,0,0-3.115-1c-3.582-.038-5.585,3.435-5.918,3.44-2.241.027-4.679-5.068-4.679-5.068-2.254-1.487-1.534-3.555-.325-4.09s1.835,1.278,2.021,2.3.876,1.681,1.464.812-.744-.139.139-4.88-2.417-6.647-2.417-6.647l-3.694-4.09c-8.62,3.812-2.978,17.579-.62,20.684,4.487,5.908,11.323,11.525,15.424,8.908C173.136,340.56,172.332,331.8,172.332,331.8Zm-5.277,2.579a7.8,7.8,0,0,0,3.138-.6S169.147,336.7,167.055,334.377Z" transform="translate(-131.059 -300.323)" fill="#141c1e"/>
      <path id="Path_5681" data-name="Path 5681" d="M179.477,361.174l-25.405-.479s-3.865,6.334-4.729,24.615c-.593,12.515-1.1,15.982-2.348,32.525-.846,11.232-4.83,54.279-4.83,54.279h13.5s5.716-49.123,6.007-51.8c.1-.946,3.447-27.246,3.447-27.246s-.548,23.853-.548,26.589-.589,51.066-.589,51.066h14.222s1.6-41.094,1.733-50.5C180.158,405,181.46,366.091,179.477,361.174Z" transform="translate(-137.146 -267.857)" fill="#4c555a"/>
      <path id="Path_5682" data-name="Path 5682" d="M169.638,333.05l-4.981,18.966s9.2,17.131,13.84,17.369,26.727-19.273,26.727-19.273l-3.725-6.356s-19.117,14.327-20.187,13.969S172.922,333.695,169.638,333.05Z" transform="translate(-121.97 -286.51)" fill="#3c49b9"/>
      <path id="Path_5683" data-name="Path 5683" d="M159.529,330.914s-11.8,1.606-14.65,3.152c0,0,8.022,12.85,5.523,21.118,0,0-2.231,28.38-2.045,34.564a53.54,53.54,0,0,0,31.672.219s-.266-31.277-.255-36.114c0,0,1.447-13,3.207-19.363,0,0-6.242-1.33-12.637-2.514,0,0,.521.658-2.187,4.111C166.533,338.161,160.012,335.136,159.529,330.914Z" transform="translate(-135.315 -287.951)" fill="#3c49b9"/>
      <path id="Path_5684" data-name="Path 5684" d="M178.643,350.415s.353-3.164.921-7.129c-2.108,2.2-2.412,11.83-2.695,13.431-1.291,7.327-10.894,9.975-17.114,6.037-5.8-3.671-6.491-12.889-7.871-18.891-.737-3.2-2.785-5.674-5.327-7.851,2.03,4.485,4.177,10.887,2.713,15.732,0,0-2.231,28.378-2.045,34.564a53.54,53.54,0,0,0,31.672.219S178.631,355.251,178.643,350.415Z" transform="translate(-134.182 -284.511)" fill="#0d1486"/>
      <path id="Path_5685" data-name="Path 5685" d="M150.125,374.092c.876,1.077,3.807,4.58,3.331,6.126s-2.916-1.248-3.807-2.2-1.012,2.261-.774,3.986,3.746,4.58,3.39,5.769-2.378-.476-4.56-3.688c0,0,3.45,3.966,2.658,4.52s-2.736-1.467-4.282-3.807c0,0,3.331,3.748,2.5,4.193s-3.122-2.17-3.984-3.509c0,0,2.832,3.075,2.052,3.581-.625.4-2.676-1.44-3.48-3.879s1.576-10.41,1.457-11.926a24.165,24.165,0,0,0-.6-3.41l4.917-1.11C148.837,368.762,148.815,372.486,150.125,374.092Z" transform="translate(-136.583 -262.429)" fill="#ffbb9a"/>
      <path id="Path_5686" data-name="Path 5686" d="M152.768,395.727l-6.781,1.785s-7.888-25.931-6.7-32.118,4.088-29.386,9.442-32.6c0,0,6.819,1.969,7.228,10.35.233,4.751-1.7,10.768-1.7,10.768s-4.269,8.179-4.818,13.9C148.982,372.569,152.768,395.727,152.768,395.727Z" transform="translate(-139.168 -286.681)" fill="#3c49b9"/>
      <path id="Path_5687" data-name="Path 5687" d="M164.939,331.452l-2.424,4.639-7.821-5.974-2.38,1.8,7.468,10.265,3.09-5.036,4.22,3.2.158-7.469Z" transform="translate(-130.297 -288.488)" fill="#f8f8f8"/>
      <path id="Path_5688" data-name="Path 5688" d="M179.266,374.056s41.886-54.177,42.623-54.41-39.831,56.981-39.831,56.981-.784.792-2.246-.288A1.733,1.733,0,0,1,179.266,374.056Z" transform="translate(-112.274 -295.554)" fill="#141c1e"/>
      <path id="Path_5689" data-name="Path 5689" d="M196.048,337.623a21.223,21.223,0,0,1-4.289,1.112c-1.412.079-1.072-1.33-.129-1.839.975-.527,4.527-2.2,5.453-1.748s.571,2.11.022,2.316a1.365,1.365,0,0,1,.449,2.06s.68,1.492-.167,2.165c0,0,.414,1.725-.705,2.092s-4.147.521-4.537-.265c-.469-.946,1.032-1.412,4.011-1.7a35.621,35.621,0,0,1-3.758.5c-.757-.085-2.742-1.75,3.684-2.423,0,0-5.131,1.447-5.362.149C190.425,338.39,196.048,337.623,196.048,337.623Z" transform="translate(-104.393 -285.145)" fill="#ffbb9a"/>
    </g>
    <g id="Group_3052" data-name="Group 3052" transform="translate(181.36 140.684)">
      <path id="Path_5690" data-name="Path 5690" d="M254.421,386.286l.072,5.759s24.456,1.537,31.32-.827,21.334-21.44,22.572-24.635c1.487-3.844-4.175-13.182-9.782-4.671a176.584,176.584,0,0,1-16.337,20.321C281.694,382.589,254.421,386.286,254.421,386.286Z" transform="translate(-213.258 -325.26)" fill="#ff3da6"/>
      <path id="Path_5691" data-name="Path 5691" d="M265.228,378.039s-2.47-.829-2.981-.889-6.28-3.078-7.119-2.745-8.719,3.375-8.734,4.147,2.006.544,6.315-1.5c0,0-5.583,2.189-4.858,2.964s5.793-1.82,5.793-1.82S248.58,380.3,249.43,381s5.553-1.964,5.553-1.964-3.654,1.985-3.358,2.422,2.366-.012,4.87-1.326c0,0,.424-.122,1.377.477s7.91.464,7.91.464Z" transform="translate(-218.674 -314.506)" fill="#f7936a"/>
      <path id="Path_5692" data-name="Path 5692" d="M244.562,383.5l8.26-14.006s1.971-1.159,1.983,1.243l-9.536,13.312S243.071,386.763,244.562,383.5Z" transform="translate(-220.26 -317.991)"/>
      <path id="Path_5693" data-name="Path 5693" d="M264.353,377.374s-2.713.008-3.281-.064-7.436-5.14-8.3-4.671-9.017,4.758-8.918,5.81,2.274.7,6.675-2.167c0,0-5.771,3.088-4.862,4.125s6.054-2.587,6.054-2.587-5.217,2.961-4.178,3.9,5.769-2.778,5.769-2.778-3.693,2.77-3.3,3.356,2.586-.062,5.121-1.9a4.572,4.572,0,0,1,2.043,1.154c2.075,1.963,8.245.732,8.245.732Z" transform="translate(-220.389 -315.701)" fill="#ffbb9a"/>
      <path id="Path_5694" data-name="Path 5694" d="M284.33,355.808c.856-.177,4.957-8.831,6.714-10.514.841,5.91,4.413,19.924,4.413,19.924-4.334,4.651-12.981,1.8-12.981,1.8A29.363,29.363,0,0,0,284.33,355.808Z" transform="translate(-194.329 -334.13)" fill="#f7936a"/>
      <path id="Path_5695" data-name="Path 5695" d="M291.245,339.046s-7.911,1.78-9.427,4.088-1.512,8.31-2.35,9.9c-.507.961-.961,1.737-1.214,2.3-.223.494.338.784,1.027,1.028a1.191,1.191,0,0,1,.739.765c.469,1.452,1.775,5.156,3.083,5.672,1.631.643,9.692.4,12.113-6.625S296.312,337.54,291.245,339.046Z" transform="translate(-197.211 -338.436)" fill="#ffbb9a"/>
      <path id="Path_5696" data-name="Path 5696" d="M267.1,425.138l5.651-.933s.286,5.369.757,6.6c0,0-6.337,3.031-12.833.633,0,0,4.142-1.784,5.227-3.051A6.238,6.238,0,0,0,267.1,425.138Z" transform="translate(-209.039 -280.888)" fill="#ffbb9a"/>
      <path id="Path_5697" data-name="Path 5697" d="M275.971,426.638a18.153,18.153,0,0,1-10.959,2.505s-8.109,4.339-8.632,5.426c-.732,1.521,2.822,1.616,8.364,1.434,4.728-.154,4.381-.509,5.331-1.437s2.132-1.959,2.132-1.959a9.667,9.667,0,0,1,.923,3.286l2.114-.3s-.246-2.6.772-3.981A3.981,3.981,0,0,0,275.971,426.638Z" transform="translate(-212 -279.246)"/>
      <path id="Path_5698" data-name="Path 5698" d="M280.078,424.4l4.267-1.164s2.5,4.175,3.236,5.27c0,0-5.508,4.361-12.374,3.46,0,0,3.643-2.658,4.421-4.133A6.252,6.252,0,0,0,280.078,424.4Z" transform="translate(-199.234 -281.54)" fill="#ffbb9a"/>
      <path id="Path_5699" data-name="Path 5699" d="M289.9,425.8A18.14,18.14,0,0,1,279.22,429.3s-7.674,5.068-8.094,6.2c-.588,1.581,2.958,1.348,8.461.656,4.693-.591,4.316-.913,5.173-1.924s1.943-2.147,1.943-2.147a9.6,9.6,0,0,1,1.223,3.185l2.077-.5s-.484-2.562.4-4.034A3.981,3.981,0,0,0,289.9,425.8Z" transform="translate(-202.03 -279.814)"/>
      <path id="Path_5700" data-name="Path 5700" d="M310.935,377.375l-11.14,7.886s-36.14,6.963-40.726,10.4,29.177,64.415,29.177,64.415l10.511-3.492s-25.223-53.988-22.93-56.281,39.455-5.684,41.8-6.387C319.917,393.231,316.646,385,310.935,377.375Z" transform="translate(-210.41 -312.485)" fill="#a9e8ef"/>
      <path id="Path_5701" data-name="Path 5701" d="M310.935,377.375l-11.14,7.886s-36.14,6.963-40.726,10.4,29.177,64.415,29.177,64.415l10.511-3.492s-25.223-53.988-22.93-56.281,39.455-5.684,41.8-6.387C319.917,393.231,316.646,385,310.935,377.375Z" transform="translate(-210.41 -312.485)" fill="#5dd4e2"/>
      <path id="Path_5702" data-name="Path 5702" d="M315.464,379.513,300.9,380.741s-38.321,8.466-43.01,12.852c-4.187,3.914,7.786,64.426,7.786,64.426l11.407-2.886s-6.431-54.031-3.633-55.669c2.413-1.413,41.585-1.413,44.03-1.413C321.009,398.05,323.5,387.627,315.464,379.513Z" transform="translate(-211.516 -311.042)" fill="#a9e8ef"/>
      <g id="Group_3048" data-name="Group 3048" transform="translate(77.092 28.165)">
        <path id="Path_5703" data-name="Path 5703" d="M298.619,355.446a105.812,105.812,0,0,1-11.549,4.383s-6.793,13.411-7.252,17.153-3.944,23.284-3.944,23.284,21.594,7.511,31.287,2.721c0,0-3.04-15.079-1.969-23.012S305.338,361.326,298.619,355.446Z" transform="translate(-275.875 -355.446)" fill="#ff3da6"/>
        <path id="Path_5704" data-name="Path 5704" d="M296.019,374.082c-.023,6.711-4.339,10-8.781,14.339-2.623,2.564-5.959,5.16-7.476,8.909-2.38-.7-3.887-1.244-3.887-1.244s2.113-10.057,3.142-17.394c4.455-1.991,6.819-6.25,8.409-10.782.921-2.624,1.422-4.319,3.085-6.272,4.93.134,5.23,5.9,5.51,11.293C296.02,373.32,296.02,373.707,296.019,374.082Z" transform="translate(-275.875 -351.268)" fill="#e92081"/>
      </g>
      <g id="Group_3050" data-name="Group 3050" transform="translate(57.21 30.885)">
        <path id="Path_5705" data-name="Path 5705" d="M315.884,359.089,301.31,417.354l-6.032-1.509,12.534-58.775Z" transform="translate(-242.901 -357.07)" fill="#a7a7a7"/>
        <g id="Group_3049" data-name="Group 3049" transform="translate(6.476 61.98)">
          <rect id="Rectangle_984" data-name="Rectangle 984" width="2.414" height="63.593" fill="#b6b6b6"/>
          <rect id="Rectangle_985" data-name="Rectangle 985" width="2.414" height="63.593" transform="translate(44.693)" fill="#b6b6b6"/>
        </g>
        <rect id="Rectangle_986" data-name="Rectangle 986" width="60.06" height="8.321" transform="translate(0 56.124)" fill="#48525b"/>
      </g>
      <path id="Path_5706" data-name="Path 5706" d="M284.037,346a5.228,5.228,0,0,1,4.852,2.735,5.06,5.06,0,0,1,.646,3.242c-.112.583-1.588,2.993-.079,3.19.707.092,1.234-1.392,1.594-1.815.971-1.139,2.1-.782,2.8.429.861,1.49-.05,2.554-1.132,3.542-1.547,1.41-.717,1.779-.343,3.7.469,2.412-.715,4.872,1.055,6.813a4.836,4.836,0,0,0,4.674,1.594c2.127-.315,4.394-.68,5.465-2.681,2.129-3.977-.539-6.99-1.8-10.785-1.44-4.322-.035-10.978-3.39-14.418a10.8,10.8,0,0,0-6.543-2.842,22.508,22.508,0,0,0-6.674.559c-1.768.316-3.344,1.07-5.1,1.383-1.186.213-1.593-.206-1.834,1.042a5.405,5.405,0,0,0,.648,2.537c.978,1.707,3.028,1.784,4.781,1.77C283.782,346,283.911,346,284.037,346Z" transform="translate(-197.211 -338.628)" fill="#141c1e"/>
      <g id="Group_3051" data-name="Group 3051" transform="translate(0 67.115)">
        <rect id="Rectangle_987" data-name="Rectangle 987" width="2.079" height="91.825" transform="translate(67.993 0.001)" fill="#7695a8"/>
        <rect id="Rectangle_988" data-name="Rectangle 988" width="2.079" height="91.825" transform="translate(0 0.001)" fill="#7695a8"/>
        <rect id="Rectangle_989" data-name="Rectangle 989" width="70.072" height="2.435" fill="#7695a8"/>
      </g>
      <path id="Path_5707" data-name="Path 5707" d="M254.893,384.834l.074,7.54s25.272,1.209,32.366-1.156,22.046-21.44,23.324-24.635c1.537-3.844-4.314-13.182-10.107-4.671a177.984,177.984,0,0,1-16.883,20.321C283.075,382.589,254.893,384.834,254.893,384.834Z" transform="translate(-212.939 -325.26)" fill="#ff3da6"/>
    </g>
    <g id="Group_3057" data-name="Group 3057" transform="translate(315.909 133.517)">
      <path id="Path_5708" data-name="Path 5708" d="M344.643,424.649s-8.317,4.1-12.773,5.942c-3.7,1.532-2.936,4.909,1.274,6.158s7.68.427,8.638-.908,3.314-.837,4.207-.409,7.916-1.191,8.313-2.819-1.346-8.8-1.346-8.8Z" transform="translate(-297.156 -273.984)"/>
      <path id="Path_5709" data-name="Path 5709" d="M386.276,378.2l-14.131.186s-34.576,12.9-39.093,16.285,7.424,62.423,7.424,62.423l11.731-1.229s-2.767-52.822-.509-55.08,38.858-5.6,41.165-6.292C395.122,393.822,391.9,385.711,386.276,378.2Z" transform="translate(-295.441 -304.758)" fill="#9070c5"/>
      <path id="Path_5710" data-name="Path 5710" d="M386.276,378.2l-14.131.186s-34.576,12.9-39.093,16.285,7.424,62.423,7.424,62.423l11.731-1.229s-2.767-52.822-.509-55.08,38.858-5.6,41.165-6.292C395.122,393.822,391.9,385.711,386.276,378.2Z" transform="translate(-295.441 -304.758)" fill="#6346a8"/>
      <g id="Group_3054" data-name="Group 3054" transform="translate(47.638 39.955)">
        <path id="Path_5711" data-name="Path 5711" d="M389.724,360.2l-14.354,57.384-5.941-1.486,12.344-57.886Z" transform="translate(-317.846 -358.207)" fill="#a7a7a7"/>
        <g id="Group_3053" data-name="Group 3053" transform="translate(6.378 61.043)">
          <rect id="Rectangle_990" data-name="Rectangle 990" width="2.378" height="62.631" fill="#b6b6b6"/>
          <rect id="Rectangle_991" data-name="Rectangle 991" width="2.378" height="62.631" transform="translate(44.017)" fill="#b6b6b6"/>
        </g>
        <rect id="Rectangle_992" data-name="Rectangle 992" width="59.152" height="8.195" transform="translate(0 55.275)" fill="#48525b"/>
      </g>
      <path id="Path_5712" data-name="Path 5712" d="M365.443,344.338l-8.111,1.732s2.333,9.973,0,15.469c0,0,4.423,1.737,11.874-3.909C369.206,357.63,364.615,353.748,365.443,344.338Z" transform="translate(-278.371 -327.609)" fill="#f7936a"/>
      <path id="Path_5713" data-name="Path 5713" d="M370.032,338.4s-9.023-3.4-11.443-2.157-5.362,3.073-4.9,4.9.8,7.24.213,8.94-1.6,2.877-1.357,3.467,1.666.124,2.058.847,2.5,5.478,3.728,6.165,8.223-1.78,11.458-9.382S372.042,339.693,370.032,338.4Z" transform="translate(-281.629 -333.254)" fill="#ffbb9a"/>
      <path id="Path_5714" data-name="Path 5714" d="M339.641,424.856s-10.859,3.788-15.334,5.59c-3.72,1.5-2.984,4.88,1.214,6.17s7.675.5,8.647-.824,3.323-.806,4.21-.368,7.93-1.112,8.34-2.736-.586-6.379-.586-6.379Z" transform="translate(-302.277 -273.282)"/>
      <path id="Path_5715" data-name="Path 5715" d="M375.338,345.258a19.891,19.891,0,0,1-.76-2.6c-.09-.881.79-7.481-7.34-6.662a3.554,3.554,0,0,1-1.167-.052c-1.333-.308-2.5-1.35-3.915-1.536-4.512-.594-7.241,3.765-11.388,3.976-.137,1.162,1.32,3,2.043,3.912a7.593,7.593,0,0,0,3.611,2.259,13.128,13.128,0,0,0,4.944.362c.831-.085,2.331-1.028,3.05-.33.737.717.163,3.455.226,4.394.045.688-.069,1.264.705,1.554a.837.837,0,0,0,.219.05c.067-.007.134-.015.2-.02.819-.251.651-2.572.866-3.251.752-2.386,3.6-2.092,3.956.23.308,1.988-1.606,3.356-2.164,3.711-.067.338-.117.662-.149.966a2.451,2.451,0,0,0,3.641,2.356,7.542,7.542,0,0,0,3.339-3.564C376.154,349.177,375.8,347.132,375.338,345.258Z" transform="translate(-282.806 -334.349)" fill="#141c1e"/>
      <path id="Path_5716" data-name="Path 5716" d="M391.527,376.956,375.744,380.1s-35.861,12.952-40.377,16.34-5.324,61.5-5.324,61.5l11.773,1.137s5.039-55.244,7.794-56.857c2.376-1.392,40.957-1.392,43.365-1.392C396.451,400.831,399.445,384.946,391.527,376.956Z" transform="translate(-296.783 -305.601)" fill="#9070c5"/>
      <path id="Path_5717" data-name="Path 5717" d="M328.18,388.064l1.44,7.414s30.637-5.3,33.94-7.747,23.081-23.863,20.179-29.827-6.665-4.5-9.03-1.11-13.235,20.629-14.848,22.322S328.18,388.064,328.18,388.064Z" transform="translate(-298.04 -321.197)" fill="#6dd2ff"/>
      <g id="Group_3055" data-name="Group 3055" transform="translate(64.542 29.45)">
        <path id="Path_5718" data-name="Path 5718" d="M374.859,351.934s-7.918,4.011-12.395,3.758c0,0-7.246,15.232-7.736,19.306s-6.007,26.291-6.007,26.291,24.067,8.317,35.218,1.752c0,0-3.294-16.144-2.154-24.782S382.022,358.338,374.859,351.934Z" transform="translate(-348.722 -351.934)" fill="#6dd2ff"/>
        <path id="Path_5719" data-name="Path 5719" d="M371.471,376.08c1.752-4.038,8.608-10.547,5.156-15.082-2.775-3.648-4.765-3.9-7.814-.422-2.857,3.257-5.468,6.764-8.714,9.643a55.51,55.51,0,0,1-5.48,4.008c0,8.374-5.9,22.9-5.9,22.9s12.458,3.988,19.264,4.086C364.342,393.258,367.8,384.559,371.471,376.08Z" transform="translate(-348.722 -347.767)" fill="#249ffd"/>
      </g>
      <path id="Path_5720" data-name="Path 5720" d="M340.946,376.056a14.29,14.29,0,0,1-2.981,1.094c-.511-.059-6.279-3.078-7.118-2.745s-8.719,3.375-8.735,4.147,2.008.544,6.317-1.5c0,0-5.583,2.189-4.858,2.964s5.791-1.82,5.791-1.82S324.3,380.3,325.15,381s5.553-1.964,5.553-1.964-3.654,1.985-3.359,2.422,2.368-.012,4.872-1.326c0,0,.424-.122,1.377.477s7.908-1.519,7.908-1.519Z" transform="translate(-302.134 -307.34)" fill="#f7936a"/>
      <path id="Path_5721" data-name="Path 5721" d="M320,383.639l7.672-14.337s1.919-1.239,2.031,1.161l-8.975,13.7S318.65,386.962,320,383.639Z" transform="translate(-303.865 -310.981)"/>
      <path id="Path_5722" data-name="Path 5722" d="M339.688,376.687s-2.71.121-3.279.072-7.643-4.827-8.489-4.323-8.811,5.13-8.668,6.175,2.3.6,6.578-2.442c0,0-5.637,3.324-4.686,4.322s5.942-2.835,5.942-2.835-5.089,3.174-4.014,4.068,5.65-3.018,5.65-3.018-3.574,2.921-3.162,3.492,2.579-.169,5.039-2.11a4.586,4.586,0,0,1,2.088,1.068c2.155,1.874,8.266.388,8.266.388Z" transform="translate(-304.065 -308.676)" fill="#ffbb9a"/>
      <g id="Group_3056" data-name="Group 3056" transform="translate(0 74.281)">
        <rect id="Rectangle_993" data-name="Rectangle 993" width="2.078" height="91.825" transform="translate(67.993 0.001)" fill="#7695a8"/>
        <rect id="Rectangle_994" data-name="Rectangle 994" width="2.079" height="91.825" transform="translate(0 0.001)" fill="#7695a8"/>
        <rect id="Rectangle_995" data-name="Rectangle 995" width="70.072" height="2.435" fill="#7695a8"/>
      </g>
      <path id="Path_5723" data-name="Path 5723" d="M328.78,386.655l2.115,7.565s31.207.9,34.673-1.551,27.343-26.693,24.3-32.659-7.02-4.51-9.484-1.109c-2.271,3.133-17.355,20.571-19.134,22.364C359.561,382.968,328.78,386.655,328.78,386.655Z" transform="translate(-297.635 -319.779)" fill="#6dd2ff"/>
    </g>
    <g id="Group_3091" data-name="Group 3091" transform="translate(0.449 217.477)">
      <ellipse id="Ellipse_43" data-name="Ellipse 43" cx="22.5" cy="1.5" rx="22.5" ry="1.5" transform="translate(8.551 92.523)"/>
      <g id="Group_1415" data-name="Group 1415" transform="translate(8.063 0) rotate(7)">
        <g id="Group_1393" data-name="Group 1393" transform="translate(0 0)">
          <g id="Group_1392" data-name="Group 1392">
            <path id="Path_4024" data-name="Path 4024" d="M1.54.333s-3.83,1.551.588,9.682A107.044,107.044,0,0,0,9.564,22.149s.8,1.894-.807,2.232-5.163-.134-5.829,1.855c-.691,2.063.843,3.952,3.9,5.565s9.614,5.393,10.205,5.737,1.178,1.213.123,1.618S8.145,40.6,8.863,44.346s9.963,6.841,10.968,7.2,1.253.773,1.186,1.321-2.773.645-5.023,1.033-4.791,1.233-4.2,3.359,6.137,6.48,19.344,7.43l6.148.04L40.5,59.45c6.179-11.711,5.413-18.717,3.925-20.346s-3.55.08-5.069,1.784-3.033,3.95-3.534,3.717-.721-.664-.494-1.7,2.489-10.525-.309-13.116-7.886,3.61-8.788,4.291-1.33-.289-1.309-.961.283-8.251.528-11.7-.546-5.746-2.662-6.25c-2.04-.487-3.521,2.786-4.657,3.967s-2.322-.5-2.322-.5A107.108,107.108,0,0,0,9.443,5.911C4.879-2.138,1.465.37,1.465.37" fill="#88bd4f"/>
          </g>
        </g>
        <g id="Group_1396" data-name="Group 1396" transform="translate(5.485 7.621)">
          <g id="Group_1395" data-name="Group 1395" transform="translate(0 0)">
            <g id="Group_1394" data-name="Group 1394">
              <path id="Path_4025" data-name="Path 4025" d="M32.162,58.542c-3.329-5.924-9.068-16.554-14.044-25.654S8.634,15.558,5.335,9.617L1.422,2.586.359.673.087.173C.026.06,0,0,0,0S.038.054.1.164l.289.49,1.094,1.9c.948,1.647,2.3,4.039,3.967,7C8.782,15.476,13.312,23.7,18.286,32.8s10.7,19.739,13.994,25.68" fill="#e0e0e0"/>
            </g>
          </g>
        </g>
        <g id="Group_1399" data-name="Group 1399" transform="translate(7.881 27.097)">
          <g id="Group_1398" data-name="Group 1398" transform="translate(0 0)">
            <g id="Group_1397" data-name="Group 1397">
              <path id="Path_4026" data-name="Path 4026" d="M0,0A2.007,2.007,0,0,1,.431.111c.274.08.668.208,1.152.371.968.327,2.293.813,3.746,1.375L9.043,3.309l1.128.433a1.968,1.968,0,0,1,.408.175,2.01,2.01,0,0,1-.432-.105C9.873,3.731,9.48,3.6,9,3.436,8.032,3.1,6.713,2.6,5.261,2.034L1.538.609.408.181A1.938,1.938,0,0,1,0,0Z" fill="#e0e0e0"/>
            </g>
          </g>
        </g>
        <g id="Group_1402" data-name="Group 1402" transform="translate(18.869 18.269)">
          <g id="Group_1401" data-name="Group 1401" transform="translate(0 0)">
            <g id="Group_1400" data-name="Group 1400">
              <path id="Path_4027" data-name="Path 4027" d="M0,12.342c-.05-.017.831-2.793,1.967-6.2S4.067-.016,4.117,0,3.287,2.793,2.15,6.2.052,12.359,0,12.342Z" fill="#e0e0e0"/>
            </g>
          </g>
        </g>
        <g id="Group_1405" data-name="Group 1405" transform="translate(25.879 35.204)">
          <g id="Group_1404" data-name="Group 1404" transform="translate(0 0)">
            <g id="Group_1403" data-name="Group 1403">
              <path id="Path_4028" data-name="Path 4028" d="M0,9.724a2.055,2.055,0,0,1,.24-.386l.7-1.015c.592-.857,1.4-2.045,2.251-3.388s1.579-2.582,2.1-3.485L5.908.382A2.081,2.081,0,0,1,6.154,0a2.061,2.061,0,0,1-.18.417c-.127.262-.318.639-.564,1.1-.49.921-1.2,2.176-2.055,3.522S1.673,7.564,1.053,8.4c-.312.418-.568.753-.752.98A2.066,2.066,0,0,1,0,9.724Z" fill="#e0e0e0"/>
            </g>
          </g>
        </g>
        <g id="Group_1408" data-name="Group 1408" transform="translate(15.241 43.929)">
          <g id="Group_1407" data-name="Group 1407" transform="translate(0 0)">
            <g id="Group_1406" data-name="Group 1406">
              <path id="Path_4029" data-name="Path 4029" d="M0,.011a1.792,1.792,0,0,1,.42,0L1.559.067c.961.06,2.288.155,3.753.272S8.1.574,9.061.668L10.2.789a1.787,1.787,0,0,1,.414.07,1.787,1.787,0,0,1-.42,0L9.05.8C8.089.743,6.762.647,5.3.53S2.507.3,1.548.2L.414.081A1.787,1.787,0,0,1,0,.011Z" fill="#e0e0e0"/>
            </g>
          </g>
        </g>
        <g id="Group_1411" data-name="Group 1411" transform="translate(19.823 57.355)">
          <g id="Group_1410" data-name="Group 1410" transform="translate(0 0)">
            <g id="Group_1409" data-name="Group 1409">
              <path id="Path_4030" data-name="Path 4030" d="M0,.01a2.886,2.886,0,0,1,.537,0L2,.082C3.23.152,4.932.261,6.81.393s3.579.263,4.809.367l1.456.133a2.886,2.886,0,0,1,.532.075,2.891,2.891,0,0,1-.537,0L11.61.895C10.377.825,8.676.716,6.8.584S3.218.321,1.988.217L.532.084A2.882,2.882,0,0,1,0,.01Z" fill="#e0e0e0"/>
            </g>
          </g>
        </g>
        <g id="Group_1414" data-name="Group 1414" transform="translate(33.11 45.66)">
          <g id="Group_1413" data-name="Group 1413" transform="translate(0 0)">
            <g id="Group_1412" data-name="Group 1412">
              <path id="Path_4031" data-name="Path 4031" d="M0,12.548a3.269,3.269,0,0,1,.291-.5l.844-1.319c.711-1.114,1.687-2.656,2.716-4.389S5.778,3.02,6.416,1.863L7.173.493A3.345,3.345,0,0,1,7.47,0a3.253,3.253,0,0,1-.231.527c-.16.334-.4.813-.7,1.4C5.927,3.1,5.05,4.707,4.016,6.442s-2.027,3.27-2.768,4.366c-.372.547-.677.987-.895,1.286A3.331,3.331,0,0,1,0,12.548Z" fill="#e0e0e0"/>
            </g>
          </g>
        </g>
      </g>
      <g id="Group_1416" data-name="Group 1416" transform="matrix(0.643, 0.766, -0.766, 0.643, 61.127, 28.731)">
        <g id="Group_1393-2" data-name="Group 1393" transform="translate(0 0)">
          <g id="Group_1392-2" data-name="Group 1392">
            <path id="Path_4024-2" data-name="Path 4024" d="M.887.192s-2.206.893.339,5.577a61.667,61.667,0,0,0,4.283,6.99s.458,1.091-.465,1.286-2.974-.077-3.358,1.068c-.4,1.188.486,2.277,2.245,3.206s5.538,3.107,5.879,3.3.678.7.071.932-5.189.832-4.775,2.99,5.74,3.941,6.318,4.147.722.445.683.761-1.6.372-2.894.6-2.76.71-2.417,1.935,3.535,3.733,11.143,4.28l3.542.023,1.848-3.04c3.559-6.746,3.118-10.782,2.261-11.721s-2.045.046-2.92,1.028S20.924,25.83,20.636,25.7s-.416-.382-.285-.982,1.434-6.063-.178-7.556-4.543,2.08-5.062,2.472-.766-.166-.754-.553.163-4.753.3-6.738-.315-3.31-1.534-3.6c-1.175-.28-2.028,1.6-2.683,2.285s-1.337-.285-1.337-.285A61.7,61.7,0,0,0,5.44,3.405C2.811-1.232.844.213.844.213" fill="#7bb240"/>
          </g>
        </g>
        <g id="Group_1396-2" data-name="Group 1396" transform="translate(3.16 4.39)">
          <g id="Group_1395-2" data-name="Group 1395" transform="translate(0 0)">
            <g id="Group_1394-2" data-name="Group 1394">
              <path id="Path_4025-2" data-name="Path 4025" d="M18.528,33.725c-1.918-3.413-5.224-9.536-8.09-14.779S4.974,8.963,3.074,5.54L.819,1.49.207.388.05.1C.015.035,0,0,0,0S.022.031.06.094L.226.377l.63,1.092C1.4,2.417,2.183,3.8,3.142,5.5c1.918,3.413,4.527,8.15,7.392,13.39S16.7,30.264,18.6,33.687" fill="#e0e0e0"/>
            </g>
          </g>
        </g>
        <g id="Group_1399-2" data-name="Group 1399" transform="translate(4.54 15.61)">
          <g id="Group_1398-2" data-name="Group 1398" transform="translate(0 0)">
            <g id="Group_1397-2" data-name="Group 1397">
              <path id="Path_4026-2" data-name="Path 4026" d="M0,0A1.156,1.156,0,0,1,.249.064C.407.11.633.184.912.277c.558.188,1.321.468,2.158.792l2.14.837.65.249a1.134,1.134,0,0,1,.235.1A1.158,1.158,0,0,1,5.846,2.2c-.158-.047-.385-.121-.663-.217C4.627,1.785,3.867,1.5,3.03,1.172L.886.351.235.1A1.117,1.117,0,0,1,0,0Z" fill="#e0e0e0"/>
            </g>
          </g>
        </g>
        <g id="Group_1402-2" data-name="Group 1402" transform="translate(10.87 10.524)">
          <g id="Group_1401-2" data-name="Group 1401" transform="translate(0 0)">
            <g id="Group_1400-2" data-name="Group 1400">
              <path id="Path_4027-2" data-name="Path 4027" d="M0,7.11C-.028,7.1.48,5.5,1.134,3.538S2.343-.009,2.372,0,1.893,1.609,1.239,3.573.03,7.119,0,7.11Z" fill="#e0e0e0"/>
            </g>
          </g>
        </g>
        <g id="Group_1405-2" data-name="Group 1405" transform="translate(14.908 20.28)">
          <g id="Group_1404-2" data-name="Group 1404" transform="translate(0 0)">
            <g id="Group_1403-2" data-name="Group 1403">
              <path id="Path_4028-2" data-name="Path 4028" d="M0,5.6A1.182,1.182,0,0,1,.139,5.38l.4-.584c.341-.494.808-1.178,1.3-1.952S2.749,1.356,3.048.836L3.4.22A1.2,1.2,0,0,1,3.545,0a1.187,1.187,0,0,1-.1.24c-.073.151-.183.368-.325.633C2.834,1.4,2.424,2.127,1.932,2.9S.964,4.357.606,4.84c-.18.241-.327.434-.433.565A1.192,1.192,0,0,1,0,5.6Z" fill="#e0e0e0"/>
            </g>
          </g>
        </g>
        <g id="Group_1408-2" data-name="Group 1408" transform="translate(8.78 25.306)">
          <g id="Group_1407-2" data-name="Group 1407" transform="translate(0 0)">
            <g id="Group_1406-2" data-name="Group 1406">
              <path id="Path_4029-2" data-name="Path 4029" d="M0,.006A1.031,1.031,0,0,1,.242,0L.9.039C1.452.073,2.216.128,3.06.2S4.668.331,5.22.385l.654.07A1.03,1.03,0,0,1,6.112.5,1.028,1.028,0,0,1,5.87.5L5.214.462C4.66.428,3.9.373,3.051.305S1.444.171.892.116L.238.047A1.029,1.029,0,0,1,0,.006Z" fill="#e0e0e0"/>
            </g>
          </g>
        </g>
        <g id="Group_1411-2" data-name="Group 1411" transform="translate(11.419 33.041)">
          <g id="Group_1410-2" data-name="Group 1410" transform="translate(0 0)">
            <g id="Group_1409-2" data-name="Group 1409">
              <path id="Path_4030-2" data-name="Path 4030" d="M0,.005a1.665,1.665,0,0,1,.309,0l.841.042c.71.04,1.69.1,2.772.179S5.985.378,6.694.438l.839.077a1.664,1.664,0,0,1,.307.043,1.662,1.662,0,0,1-.309,0L6.688.515C5.978.475,5,.412,3.915.336S1.854.185,1.145.125L.306.048A1.66,1.66,0,0,1,0,.005Z" fill="#e0e0e0"/>
            </g>
          </g>
        </g>
        <g id="Group_1414-2" data-name="Group 1414" transform="translate(19.074 26.304)">
          <g id="Group_1413-2" data-name="Group 1413" transform="translate(0 0)">
            <g id="Group_1412-2" data-name="Group 1412">
              <path id="Path_4031-2" data-name="Path 4031" d="M0,7.229a1.883,1.883,0,0,1,.168-.286l.486-.76c.41-.642.972-1.53,1.565-2.529S3.328,1.74,3.7,1.073L4.132.284A1.924,1.924,0,0,1,4.3,0,1.874,1.874,0,0,1,4.17.3c-.092.192-.23.468-.406.806-.35.677-.855,1.6-1.451,2.6S1.146,5.595.719,6.226C.5,6.541.329,6.794.2,6.967A1.919,1.919,0,0,1,0,7.229Z" fill="#e0e0e0"/>
            </g>
          </g>
        </g>
      </g>
      <g id="Group_286" data-name="Group 286" transform="translate(19.134 68.857)">
        <rect id="Rectangle_12" data-name="Rectangle 12" width="43.917" height="10.054" transform="translate(0 0)" fill="#27547c"/>
        <path id="Path_111" data-name="Path 111" d="M145.62,306.42l5.264,22.182h21.2l6.234-22.182Z" transform="translate(-140.078 -296.797)" fill="#002d56"/>
      </g>
    </g>
    <path id="Path_5827" data-name="Path 5827" d="M389.869,175.9l1.59-1.591a.62.62,0,0,0-.877-.877l-1.591,1.59-1.59-1.59a.62.62,0,1,0-.877.877l1.59,1.591-1.59,1.59a.62.62,0,1,0,.877.877l1.59-1.59,1.591,1.59a.62.62,0,1,0,.877-.877Z" transform="translate(-28.094 -139.926)" fill="#c4c4c4" opacity="0.2"/>
    <path id="Path_5828" data-name="Path 5828" d="M453.924,290.342l1.591-1.591a.62.62,0,0,0-.878-.877l-1.59,1.59-1.59-1.59a.62.62,0,0,0-.878.877l1.59,1.591-1.59,1.59a.62.62,0,1,0,.878.877l1.59-1.59,1.59,1.59a.62.62,0,0,0,.878-.877Z" transform="translate(-28.094 -149.926)" fill="#c4c4c4" opacity="0.2"/>
  </g>
</svg>
